<svg xmlns="http://www.w3.org/2000/svg" viewBox="0 0 900 700" preserveAspectRatio="xMidYMid slice">
  <defs>
    <linearGradient id="bg44" x1="0" y1="0" x2="1" y2="1">
      <stop offset="0" stop-color="#042442"/>
      <stop offset="1" stop-color="#06385D"/>
    </linearGradient>
  </defs>
  <rect width="900" height="700" fill="url(#bg44)"/>
  <g>
<polygon points="-3.1,1.5 94.3,-11.9 65.8,83.3" fill="#042d4f" fill-opacity="0.98"/>
<polygon points="-3.1,1.5 65.8,83.3 4.3,104.8" fill="#042c4c" fill-opacity="0.88"/>
<polygon points="94.3,-11.9 154.2,-17.3 65.8,83.3" fill="#042c4d" fill-opacity="0.82"/>
<polygon points="154.2,-17.3 162.9,102.8 65.8,83.3" fill="#053357" fill-opacity="0.75"/>
<polygon points="154.2,-17.3 232.3,-18.1 162.9,102.8" fill="#053154" fill-opacity="0.99"/>
<polygon points="232.3,-18.1 234.8,78.6 162.9,102.8" fill="#053356" fill-opacity="0.66"/>
<polygon points="232.3,-18.1 315.5,0.5 318.6,70.9" fill="#05375c" fill-opacity="0.85"/>
<polygon points="232.3,-18.1 318.6,70.9 234.8,78.6" fill="#053356" fill-opacity="0.67"/>
<polygon points="315.5,0.5 425.9,7.1 415.1,99.1" fill="#053458" fill-opacity="0.59"/>
<polygon points="315.5,0.5 415.1,99.1 318.6,70.9" fill="#065070" fill-opacity="0.8"/>
<polygon points="425.9,7.1 486.7,-3.5 488.7,70.5" fill="#065776" fill-opacity="0.66"/>
<polygon points="425.9,7.1 488.7,70.5 415.1,99.1" fill="#075f7c" fill-opacity="0.87"/>
<polygon points="486.7,-3.5 579.3,-6.4 488.7,70.5" fill="#076681" fill-opacity="0.77"/>
<polygon points="579.3,-6.4 580.1,96.2 488.7,70.5" fill="#077990" fill-opacity="0.81"/>
<polygon points="579.3,-6.4 639.9,12.6 659.8,81.2" fill="#075d7b" fill-opacity="0.96"/>
<polygon points="579.3,-6.4 659.8,81.2 580.1,96.2" fill="#076984" fill-opacity="0.97"/>
<polygon points="639.9,12.6 740.4,-14.3 659.8,81.2" fill="#087d93" fill-opacity="0.73"/>
<polygon points="740.4,-14.3 747.7,92.3 659.8,81.2" fill="#088b9f" fill-opacity="0.72"/>
<polygon points="740.4,-14.3 803.4,-14.9 747.7,92.3" fill="#07778f" fill-opacity="0.57"/>
<polygon points="803.4,-14.9 821.3,89.0 747.7,92.3" fill="#08879c" fill-opacity="0.96"/>
<polygon points="803.4,-14.9 915.8,-14.4 890.8,85.9" fill="#089cac" fill-opacity="0.56"/>
<polygon points="803.4,-14.9 890.8,85.9 821.3,89.0" fill="#09a1b0" fill-opacity="0.84"/>
<polygon points="4.3,104.8 65.8,83.3 10.1,181.8" fill="#053153" fill-opacity="0.96"/>
<polygon points="65.8,83.3 76.5,186.7 10.1,181.8" fill="#053153" fill-opacity="0.98"/>
<polygon points="65.8,83.3 162.9,102.8 76.5,186.7" fill="#052f51" fill-opacity="0.62"/>
<polygon points="162.9,102.8 175.3,158.2 76.5,186.7" fill="#053458" fill-opacity="0.84"/>
<polygon points="162.9,102.8 234.8,78.6 233.7,164.8" fill="#053559" fill-opacity="0.9"/>
<polygon points="162.9,102.8 233.7,164.8 175.3,158.2" fill="#05365b" fill-opacity="0.55"/>
<polygon points="234.8,78.6 318.6,70.9 233.7,164.8" fill="#05365a" fill-opacity="0.84"/>
<polygon points="318.6,70.9 310.6,184.3 233.7,164.8" fill="#05375c" fill-opacity="0.63"/>
<polygon points="318.6,70.9 415.1,99.1 414.1,176.6" fill="#065876" fill-opacity="0.76"/>
<polygon points="318.6,70.9 414.1,176.6 310.6,184.3" fill="#076984" fill-opacity="0.98"/>
<polygon points="415.1,99.1 488.7,70.5 414.1,176.6" fill="#065473" fill-opacity="0.56"/>
<polygon points="488.7,70.5 507.9,169.7 414.1,176.6" fill="#075c79" fill-opacity="0.74"/>
<polygon points="488.7,70.5 580.1,96.2 562.4,160.7" fill="#077089" fill-opacity="0.74"/>
<polygon points="488.7,70.5 562.4,160.7 507.9,169.7" fill="#07617d" fill-opacity="0.68"/>
<polygon points="580.1,96.2 659.8,81.2 649.1,187.4" fill="#08869b" fill-opacity="0.89"/>
<polygon points="580.1,96.2 649.1,187.4 562.4,160.7" fill="#077890" fill-opacity="0.84"/>
<polygon points="659.8,81.2 747.7,92.3 740.0,158.8" fill="#0895a7" fill-opacity="0.9"/>
<polygon points="659.8,81.2 740.0,158.8 649.1,187.4" fill="#09a5b4" fill-opacity="0.64"/>
<polygon points="747.7,92.3 821.3,89.0 815.9,158.4" fill="#09b8c2" fill-opacity="0.72"/>
<polygon points="747.7,92.3 815.9,158.4 740.0,158.8" fill="#09bec8" fill-opacity="0.56"/>
<polygon points="821.3,89.0 890.8,85.9 815.9,158.4" fill="#09afbb" fill-opacity="0.78"/>
<polygon points="890.8,85.9 904.2,161.1 815.9,158.4" fill="#09bbc5" fill-opacity="0.73"/>
<polygon points="10.1,181.8 76.5,186.7 -11.0,267.7" fill="#053458" fill-opacity="0.66"/>
<polygon points="76.5,186.7 93.3,266.9 -11.0,267.7" fill="#063c60" fill-opacity="0.68"/>
<polygon points="76.5,186.7 175.3,158.2 156.5,267.8" fill="#063c60" fill-opacity="0.98"/>
<polygon points="76.5,186.7 156.5,267.8 93.3,266.9" fill="#053559" fill-opacity="0.94"/>
<polygon points="175.3,158.2 233.7,164.8 156.5,267.8" fill="#05365a" fill-opacity="0.75"/>
<polygon points="233.7,164.8 237.6,244.4 156.5,267.8" fill="#05375c" fill-opacity="0.97"/>
<polygon points="233.7,164.8 310.6,184.3 319.5,269.4" fill="#064c6d" fill-opacity="0.78"/>
<polygon points="233.7,164.8 319.5,269.4 237.6,244.4" fill="#076d87" fill-opacity="0.62"/>
<polygon points="310.6,184.3 414.1,176.6 413.4,251.2" fill="#065574" fill-opacity="0.86"/>
<polygon points="310.6,184.3 413.4,251.2 319.5,269.4" fill="#065574" fill-opacity="0.61"/>
<polygon points="414.1,176.6 507.9,169.7 413.4,251.2" fill="#076b86" fill-opacity="0.55"/>
<polygon points="507.9,169.7 502.6,274.7 413.4,251.2" fill="#088096" fill-opacity="0.58"/>
<polygon points="507.9,169.7 562.4,160.7 502.6,274.7" fill="#099faf" fill-opacity="0.78"/>
<polygon points="562.4,160.7 565.1,279.4 502.6,274.7" fill="#088298" fill-opacity="0.89"/>
<polygon points="562.4,160.7 649.1,187.4 565.1,279.4" fill="#088fa2" fill-opacity="0.95"/>
<polygon points="649.1,187.4 646.4,246.5 565.1,279.4" fill="#0893a6" fill-opacity="0.6"/>
<polygon points="649.1,187.4 740.0,158.8 736.8,275.9" fill="#09afbb" fill-opacity="0.92"/>
<polygon points="649.1,187.4 736.8,275.9 646.4,246.5" fill="#14c5cd" fill-opacity="0.98"/>
<polygon points="740.0,158.8 815.9,158.4 736.8,275.9" fill="#09b1bd" fill-opacity="0.72"/>
<polygon points="815.9,158.4 821.6,264.2 736.8,275.9" fill="#26cfd4" fill-opacity="0.92"/>
<polygon points="815.9,158.4 904.2,161.1 899.6,254.6" fill="#2fd4d7" fill-opacity="0.59"/>
<polygon points="815.9,158.4 899.6,254.6 821.6,264.2" fill="#0dc1ca" fill-opacity="0.73"/>
<polygon points="-11.0,267.7 93.3,266.9 83.4,366.3" fill="#064d6e" fill-opacity="0.86"/>
<polygon points="-11.0,267.7 83.4,366.3 -6.9,346.4" fill="#06385d" fill-opacity="0.86"/>
<polygon points="93.3,266.9 156.5,267.8 83.4,366.3" fill="#064668" fill-opacity="0.93"/>
<polygon points="156.5,267.8 149.0,340.9 83.4,366.3" fill="#064a6b" fill-opacity="0.89"/>
<polygon points="156.5,267.8 237.6,244.4 149.0,340.9" fill="#064366" fill-opacity="0.82"/>
<polygon points="237.6,244.4 260.7,355.8 149.0,340.9" fill="#075b79" fill-opacity="0.7"/>
<polygon points="237.6,244.4 319.5,269.4 312.6,347.9" fill="#07627e" fill-opacity="0.56"/>
<polygon points="237.6,244.4 312.6,347.9 260.7,355.8" fill="#075e7b" fill-opacity="0.85"/>
<polygon points="319.5,269.4 413.4,251.2 414.3,365.1" fill="#088da1" fill-opacity="0.85"/>
<polygon points="319.5,269.4 414.3,365.1 312.6,347.9" fill="#088399" fill-opacity="0.82"/>
<polygon points="413.4,251.2 502.6,274.7 476.6,364.8" fill="#09a6b5" fill-opacity="0.99"/>
<polygon points="413.4,251.2 476.6,364.8 414.3,365.1" fill="#0895a7" fill-opacity="0.89"/>
<polygon points="502.6,274.7 565.1,279.4 476.6,364.8" fill="#09b5c1" fill-opacity="0.93"/>
<polygon points="565.1,279.4 582.0,341.9 476.6,364.8" fill="#09bbc5" fill-opacity="0.65"/>
<polygon points="565.1,279.4 646.4,246.5 582.0,341.9" fill="#0dc1ca" fill-opacity="0.8"/>
<polygon points="646.4,246.5 655.7,362.0 582.0,341.9" fill="#16c7ce" fill-opacity="0.89"/>
<polygon points="646.4,246.5 736.8,275.9 727.5,357.4" fill="#09bfc8" fill-opacity="0.58"/>
<polygon points="646.4,246.5 727.5,357.4 655.7,362.0" fill="#23cdd3" fill-opacity="0.85"/>
<polygon points="736.8,275.9 821.6,264.2 727.5,357.4" fill="#0ec2ca" fill-opacity="0.57"/>
<polygon points="821.6,264.2 820.2,334.3 727.5,357.4" fill="#29d1d5" fill-opacity="0.84"/>
<polygon points="821.6,264.2 899.6,254.6 820.2,334.3" fill="#1fcbd1" fill-opacity="0.86"/>
<polygon points="899.6,254.6 892.2,346.8 820.2,334.3" fill="#33d6d9" fill-opacity="0.84"/>
<polygon points="-6.9,346.4 83.4,366.3 -12.4,453.8" fill="#064366" fill-opacity="0.66"/>
<polygon points="83.4,366.3 73.2,427.6 -12.4,453.8" fill="#064b6c" fill-opacity="0.86"/>
<polygon points="83.4,366.3 149.0,340.9 73.2,427.6" fill="#076480" fill-opacity="0.58"/>
<polygon points="149.0,340.9 167.0,438.5 73.2,427.6" fill="#065876" fill-opacity="0.93"/>
<polygon points="149.0,340.9 260.7,355.8 239.2,431.1" fill="#076b86" fill-opacity="0.97"/>
<polygon points="149.0,340.9 239.2,431.1 167.0,438.5" fill="#088fa2" fill-opacity="0.91"/>
<polygon points="260.7,355.8 312.6,347.9 239.2,431.1" fill="#07728b" fill-opacity="0.6"/>
<polygon points="312.6,347.9 327.2,452.5 239.2,431.1" fill="#09a2b1" fill-opacity="0.74"/>
<polygon points="312.6,347.9 414.3,365.1 394.6,452.6" fill="#08879c" fill-opacity="0.6"/>
<polygon points="312.6,347.9 394.6,452.6 327.2,452.5" fill="#0896a7" fill-opacity="0.66"/>
<polygon points="414.3,365.1 476.6,364.8 394.6,452.6" fill="#0896a7" fill-opacity="0.87"/>
<polygon points="476.6,364.8 506.0,444.2 394.6,452.6" fill="#09a5b4" fill-opacity="0.68"/>
<polygon points="476.6,364.8 582.0,341.9 506.0,444.2" fill="#11c3cb" fill-opacity="0.89"/>
<polygon points="582.0,341.9 583.1,433.2 506.0,444.2" fill="#21ccd2" fill-opacity="0.66"/>
<polygon points="582.0,341.9 655.7,362.0 583.1,433.2" fill="#0ac0c9" fill-opacity="0.83"/>
<polygon points="655.7,362.0 670.4,446.4 583.1,433.2" fill="#33d6d9" fill-opacity="0.88"/>
<polygon points="655.7,362.0 727.5,357.4 670.4,446.4" fill="#33d6d9" fill-opacity="0.74"/>
<polygon points="727.5,357.4 742.8,435.6 670.4,446.4" fill="#3edcdd" fill-opacity="0.96"/>
<polygon points="727.5,357.4 820.2,334.3 742.8,435.6" fill="#3adadc" fill-opacity="0.62"/>
<polygon points="820.2,334.3 808.6,444.5 742.8,435.6" fill="#4fe5e4" fill-opacity="0.57"/>
<polygon points="820.2,334.3 892.2,346.8 808.6,444.5" fill="#2fd4d8" fill-opacity="0.68"/>
<polygon points="892.2,346.8 908.1,419.3 808.6,444.5" fill="#4be3e3" fill-opacity="0.99"/>
<polygon points="-12.4,453.8 73.2,427.6 71.9,511.4" fill="#07758d" fill-opacity="0.75"/>
<polygon points="-12.4,453.8 71.9,511.4 -6.5,526.3" fill="#07718a" fill-opacity="0.74"/>
<polygon points="73.2,427.6 167.0,438.5 71.9,511.4" fill="#08899d" fill-opacity="0.83"/>
<polygon points="167.0,438.5 152.9,507.2 71.9,511.4" fill="#087d93" fill-opacity="0.97"/>
<polygon points="167.0,438.5 239.2,431.1 152.9,507.2" fill="#0898a9" fill-opacity="0.73"/>
<polygon points="239.2,431.1 232.4,521.0 152.9,507.2" fill="#09acb9" fill-opacity="0.58"/>
<polygon points="239.2,431.1 327.2,452.5 327.3,530.1" fill="#09b8c2" fill-opacity="0.75"/>
<polygon points="239.2,431.1 327.3,530.1 232.4,521.0" fill="#09a4b3" fill-opacity="0.95"/>
<polygon points="327.2,452.5 394.6,452.6 402.5,511.3" fill="#09b3bf" fill-opacity="0.75"/>
<polygon points="327.2,452.5 402.5,511.3 327.3,530.1" fill="#09acb9" fill-opacity="0.86"/>
<polygon points="394.6,452.6 506.0,444.2 505.3,529.8" fill="#1ecbd1" fill-opacity="0.85"/>
<polygon points="394.6,452.6 505.3,529.8 402.5,511.3" fill="#09bbc5" fill-opacity="0.94"/>
<polygon points="506.0,444.2 583.1,433.2 578.9,531.9" fill="#24ced3" fill-opacity="0.6"/>
<polygon points="506.0,444.2 578.9,531.9 505.3,529.8" fill="#1bc9d0" fill-opacity="0.61"/>
<polygon points="583.1,433.2 670.4,446.4 578.9,531.9" fill="#20ccd2" fill-opacity="0.78"/>
<polygon points="670.4,446.4 648.4,528.4 578.9,531.9" fill="#45e0e0" fill-opacity="0.86"/>
<polygon points="670.4,446.4 742.8,435.6 648.4,528.4" fill="#51e7e5" fill-opacity="0.99"/>
<polygon points="742.8,435.6 730.1,530.6 648.4,528.4" fill="#4de5e4" fill-opacity="0.94"/>
<polygon points="742.8,435.6 808.6,444.5 829.1,507.2" fill="#61efec" fill-opacity="0.78"/>
<polygon points="742.8,435.6 829.1,507.2 730.1,530.6" fill="#60efeb" fill-opacity="0.8"/>
<polygon points="808.6,444.5 908.1,419.3 829.1,507.2" fill="#64f1ed" fill-opacity="0.91"/>
<polygon points="908.1,419.3 910.2,510.9 829.1,507.2" fill="#76fbf4" fill-opacity="0.78"/>
<polygon points="-6.5,526.3 71.9,511.4 -16.6,596.9" fill="#076682" fill-opacity="0.58"/>
<polygon points="71.9,511.4 84.0,625.6 -16.6,596.9" fill="#0895a7" fill-opacity="0.82"/>
<polygon points="71.9,511.4 152.9,507.2 178.3,599.9" fill="#09a5b3" fill-opacity="0.63"/>
<polygon points="71.9,511.4 178.3,599.9 84.0,625.6" fill="#09aab7" fill-opacity="1.0"/>
<polygon points="152.9,507.2 232.4,521.0 243.0,628.7" fill="#09a8b6" fill-opacity="0.59"/>
<polygon points="152.9,507.2 243.0,628.7 178.3,599.9" fill="#09b6c1" fill-opacity="0.59"/>
<polygon points="232.4,521.0 327.3,530.1 340.6,624.5" fill="#15c6cd" fill-opacity="0.92"/>
<polygon points="232.4,521.0 340.6,624.5 243.0,628.7" fill="#09bcc6" fill-opacity="0.96"/>
<polygon points="327.3,530.1 402.5,511.3 340.6,624.5" fill="#0ec2ca" fill-opacity="0.92"/>
<polygon points="402.5,511.3 400.4,604.2 340.6,624.5" fill="#15c6cd" fill-opacity="0.88"/>
<polygon points="402.5,511.3 505.3,529.8 478.8,603.8" fill="#16c6cd" fill-opacity="0.7"/>
<polygon points="402.5,511.3 478.8,603.8 400.4,604.2" fill="#21ccd2" fill-opacity="0.95"/>
<polygon points="505.3,529.8 578.9,531.9 569.4,623.4" fill="#48e1e1" fill-opacity="0.6"/>
<polygon points="505.3,529.8 569.4,623.4 478.8,603.8" fill="#38d9db" fill-opacity="0.93"/>
<polygon points="578.9,531.9 648.4,528.4 660.0,600.4" fill="#5bece9" fill-opacity="0.76"/>
<polygon points="578.9,531.9 660.0,600.4 569.4,623.4" fill="#3cdbdd" fill-opacity="0.9"/>
<polygon points="648.4,528.4 730.1,530.6 725.3,610.7" fill="#49e2e2" fill-opacity="0.82"/>
<polygon points="648.4,528.4 725.3,610.7 660.0,600.4" fill="#4fe6e4" fill-opacity="0.58"/>
<polygon points="730.1,530.6 829.1,507.2 725.3,610.7" fill="#4ce4e3" fill-opacity="0.74"/>
<polygon points="829.1,507.2 831.6,611.5 725.3,610.7" fill="#5aebe9" fill-opacity="0.84"/>
<polygon points="829.1,507.2 910.2,510.9 909.9,619.4" fill="#7dfff7" fill-opacity="0.88"/>
<polygon points="829.1,507.2 909.9,619.4 831.6,611.5" fill="#79fdf5" fill-opacity="0.83"/>
<polygon points="-16.6,596.9 84.0,625.6 77.6,698.4" fill="#09b0bc" fill-opacity="0.69"/>
<polygon points="-16.6,596.9 77.6,698.4 13.0,699.9" fill="#09a5b3" fill-opacity="0.63"/>
<polygon points="84.0,625.6 178.3,599.9 174.0,691.9" fill="#09bcc6" fill-opacity="1.0"/>
<polygon points="84.0,625.6 174.0,691.9 77.6,698.4" fill="#09adba" fill-opacity="0.86"/>
<polygon points="178.3,599.9 243.0,628.7 234.9,712.4" fill="#09b6c1" fill-opacity="1.0"/>
<polygon points="178.3,599.9 234.9,712.4 174.0,691.9" fill="#09b2be" fill-opacity="0.66"/>
<polygon points="243.0,628.7 340.6,624.5 326.6,705.2" fill="#1dcad0" fill-opacity="0.89"/>
<polygon points="243.0,628.7 326.6,705.2 234.9,712.4" fill="#23ced3" fill-opacity="0.59"/>
<polygon points="340.6,624.5 400.4,604.2 326.6,705.2" fill="#2fd4d7" fill-opacity="0.58"/>
<polygon points="400.4,604.2 397.9,683.1 326.6,705.2" fill="#2bd2d6" fill-opacity="0.98"/>
<polygon points="400.4,604.2 478.8,603.8 397.9,683.1" fill="#34d7d9" fill-opacity="0.55"/>
<polygon points="478.8,603.8 481.5,697.4 397.9,683.1" fill="#35d7da" fill-opacity="0.67"/>
<polygon points="478.8,603.8 569.4,623.4 481.5,697.4" fill="#38d9db" fill-opacity="0.89"/>
<polygon points="569.4,623.4 556.7,691.7 481.5,697.4" fill="#48e2e2" fill-opacity="0.85"/>
<polygon points="569.4,623.4 660.0,600.4 669.8,697.7" fill="#5feeeb" fill-opacity="0.94"/>
<polygon points="569.4,623.4 669.8,697.7 556.7,691.7" fill="#57eae8" fill-opacity="0.55"/>
<polygon points="660.0,600.4 725.3,610.7 719.3,711.1" fill="#70f8f2" fill-opacity="0.8"/>
<polygon points="660.0,600.4 719.3,711.1 669.8,697.7" fill="#5bece9" fill-opacity="0.76"/>
<polygon points="725.3,610.7 831.6,611.5 719.3,711.1" fill="#68f3ee" fill-opacity="1.0"/>
<polygon points="831.6,611.5 811.4,688.0 719.3,711.1" fill="#7dfff7" fill-opacity="0.91"/>
<polygon points="831.6,611.5 909.9,619.4 811.4,688.0" fill="#7dfff7" fill-opacity="0.82"/>
<polygon points="909.9,619.4 904.7,706.0 811.4,688.0" fill="#7dfff7" fill-opacity="0.56"/>
  </g>
</svg>