<svg xmlns="http://www.w3.org/2000/svg" viewBox="0 0 900 700" preserveAspectRatio="xMidYMid slice">
  <defs>
    <linearGradient id="bg33" x1="0" y1="0" x2="1" y2="1">
      <stop offset="0" stop-color="#042442"/>
      <stop offset="1" stop-color="#06385D"/>
    </linearGradient>
  </defs>
  <rect width="900" height="700" fill="url(#bg33)"/>
  <g>
<polygon points="2.4,4.9 92.7,-8.2 88.1,73.4" fill="#032644" fill-opacity="0.61"/>
<polygon points="2.4,4.9 88.1,73.4 14.7,89.5" fill="#042442" fill-opacity="0.91"/>
<polygon points="92.7,-8.2 168.9,14.4 148.4,105.1" fill="#032745" fill-opacity="0.69"/>
<polygon points="92.7,-8.2 148.4,105.1 88.1,73.4" fill="#032644" fill-opacity="0.7"/>
<polygon points="168.9,14.4 259.5,-11.5 238.0,77.0" fill="#032d4c" fill-opacity="0.69"/>
<polygon points="168.9,14.4 238.0,77.0 148.4,105.1" fill="#032d4d" fill-opacity="0.58"/>
<polygon points="259.5,-11.5 332.5,4.3 340.9,96.7" fill="#023151" fill-opacity="0.81"/>
<polygon points="259.5,-11.5 340.9,96.7 238.0,77.0" fill="#032e4e" fill-opacity="0.94"/>
<polygon points="332.5,4.3 409.2,17.1 396.1,80.9" fill="#02385a" fill-opacity="0.85"/>
<polygon points="332.5,4.3 396.1,80.9 340.9,96.7" fill="#023354" fill-opacity="0.62"/>
<polygon points="409.2,17.1 491.9,-2.0 482.1,79.1" fill="#02395a" fill-opacity="0.68"/>
<polygon points="409.2,17.1 482.1,79.1 396.1,80.9" fill="#023455" fill-opacity="0.79"/>
<polygon points="491.9,-2.0 588.0,5.0 555.8,88.4" fill="#02395a" fill-opacity="0.84"/>
<polygon points="491.9,-2.0 555.8,88.4 482.1,79.1" fill="#013e60" fill-opacity="0.56"/>
<polygon points="588.0,5.0 647.7,-7.0 647.8,83.6" fill="#014164" fill-opacity="0.64"/>
<polygon points="588.0,5.0 647.8,83.6 555.8,88.4" fill="#013e61" fill-opacity="0.88"/>
<polygon points="647.7,-7.0 736.2,-16.4 647.8,83.6" fill="#00466a" fill-opacity="0.69"/>
<polygon points="736.2,-16.4 725.6,73.2 647.8,83.6" fill="#00476b" fill-opacity="0.71"/>
<polygon points="736.2,-16.4 821.9,8.7 802.1,101.2" fill="#004c71" fill-opacity="0.63"/>
<polygon points="736.2,-16.4 802.1,101.2 725.6,73.2" fill="#00496d" fill-opacity="0.59"/>
<polygon points="821.9,8.7 897.5,12.7 908.5,89.7" fill="#004d71" fill-opacity="0.88"/>
<polygon points="821.9,8.7 908.5,89.7 802.1,101.2" fill="#005377" fill-opacity="0.89"/>
<polygon points="14.7,89.5 88.1,73.4 -12.9,162.1" fill="#032847" fill-opacity="0.73"/>
<polygon points="88.1,73.4 68.7,168.3 -12.9,162.1" fill="#032b4b" fill-opacity="0.84"/>
<polygon points="88.1,73.4 148.4,105.1 68.7,168.3" fill="#032d4c" fill-opacity="0.87"/>
<polygon points="148.4,105.1 148.4,166.7 68.7,168.3" fill="#023151" fill-opacity="0.97"/>
<polygon points="148.4,105.1 238.0,77.0 148.4,166.7" fill="#023050" fill-opacity="0.94"/>
<polygon points="238.0,77.0 235.2,163.7 148.4,166.7" fill="#023455" fill-opacity="0.72"/>
<polygon points="238.0,77.0 340.9,96.7 235.2,163.7" fill="#023758" fill-opacity="0.71"/>
<polygon points="340.9,96.7 332.6,173.4 235.2,163.7" fill="#013a5c" fill-opacity="0.95"/>
<polygon points="340.9,96.7 396.1,80.9 408.2,169.8" fill="#013d5f" fill-opacity="0.96"/>
<polygon points="340.9,96.7 408.2,169.8 332.6,173.4" fill="#013c5e" fill-opacity="0.77"/>
<polygon points="396.1,80.9 482.1,79.1 408.2,169.8" fill="#02395a" fill-opacity="0.84"/>
<polygon points="482.1,79.1 492.2,185.5 408.2,169.8" fill="#014366" fill-opacity="0.71"/>
<polygon points="482.1,79.1 555.8,88.4 492.2,185.5" fill="#013c5e" fill-opacity="0.89"/>
<polygon points="555.8,88.4 566.1,159.2 492.2,185.5" fill="#00476a" fill-opacity="0.64"/>
<polygon points="555.8,88.4 647.8,83.6 566.1,159.2" fill="#013f61" fill-opacity="0.6"/>
<polygon points="647.8,83.6 653.9,170.6 566.1,159.2" fill="#00476a" fill-opacity="0.92"/>
<polygon points="647.8,83.6 725.6,73.2 653.9,170.6" fill="#014468" fill-opacity="0.91"/>
<polygon points="725.6,73.2 746.0,160.7 653.9,170.6" fill="#004569" fill-opacity="0.64"/>
<polygon points="725.6,73.2 802.1,101.2 831.0,157.2" fill="#004d72" fill-opacity="0.89"/>
<polygon points="725.6,73.2 831.0,157.2 746.0,160.7" fill="#004d71" fill-opacity="0.86"/>
<polygon points="802.1,101.2 908.5,89.7 831.0,157.2" fill="#004e73" fill-opacity="0.72"/>
<polygon points="908.5,89.7 901.5,172.9 831.0,157.2" fill="#00597b" fill-opacity="0.55"/>
<polygon points="-12.9,162.1 68.7,168.3 -6.3,276.8" fill="#032948" fill-opacity="0.71"/>
<polygon points="68.7,168.3 88.8,250.1 -6.3,276.8" fill="#023252" fill-opacity="0.64"/>
<polygon points="68.7,168.3 148.4,166.7 88.8,250.1" fill="#032e4d" fill-opacity="1.0"/>
<polygon points="148.4,166.7 163.5,266.6 88.8,250.1" fill="#023656" fill-opacity="0.73"/>
<polygon points="148.4,166.7 235.2,163.7 229.4,247.3" fill="#023859" fill-opacity="0.87"/>
<polygon points="148.4,166.7 229.4,247.3 163.5,266.6" fill="#013a5b" fill-opacity="0.8"/>
<polygon points="235.2,163.7 332.6,173.4 229.4,247.3" fill="#013a5b" fill-opacity="0.59"/>
<polygon points="332.6,173.4 330.8,270.9 229.4,247.3" fill="#013b5d" fill-opacity="0.73"/>
<polygon points="332.6,173.4 408.2,169.8 407.8,259.6" fill="#013c5e" fill-opacity="0.71"/>
<polygon points="332.6,173.4 407.8,259.6 330.8,270.9" fill="#014366" fill-opacity="0.65"/>
<polygon points="408.2,169.8 492.2,185.5 407.8,259.6" fill="#013d5f" fill-opacity="0.7"/>
<polygon points="492.2,185.5 491.1,253.7 407.8,259.6" fill="#014164" fill-opacity="0.56"/>
<polygon points="492.2,185.5 566.1,159.2 491.1,253.7" fill="#00496d" fill-opacity="0.8"/>
<polygon points="566.1,159.2 585.7,279.5 491.1,253.7" fill="#014366" fill-opacity="0.79"/>
<polygon points="566.1,159.2 653.9,170.6 653.9,244.9" fill="#00466a" fill-opacity="0.77"/>
<polygon points="566.1,159.2 653.9,244.9 585.7,279.5" fill="#005075" fill-opacity="0.99"/>
<polygon points="653.9,170.6 746.0,160.7 732.8,273.6" fill="#004d72" fill-opacity="0.9"/>
<polygon points="653.9,170.6 732.8,273.6 653.9,244.9" fill="#004f74" fill-opacity="0.59"/>
<polygon points="746.0,160.7 831.0,157.2 732.8,273.6" fill="#005176" fill-opacity="0.91"/>
<polygon points="831.0,157.2 812.2,248.0 732.8,273.6" fill="#016383" fill-opacity="0.88"/>
<polygon points="831.0,157.2 901.5,172.9 889.2,270.3" fill="#026e8c" fill-opacity="0.72"/>
<polygon points="831.0,157.2 889.2,270.3 812.2,248.0" fill="#026786" fill-opacity="0.92"/>
<polygon points="-6.3,276.8 88.8,250.1 86.1,359.6" fill="#02395a" fill-opacity="0.94"/>
<polygon points="-6.3,276.8 86.1,359.6 4.2,342.1" fill="#02395a" fill-opacity="0.7"/>
<polygon points="88.8,250.1 163.5,266.6 179.7,362.2" fill="#023758" fill-opacity="0.83"/>
<polygon points="88.8,250.1 179.7,362.2 86.1,359.6" fill="#023556" fill-opacity="0.69"/>
<polygon points="163.5,266.6 229.4,247.3 179.7,362.2" fill="#02395b" fill-opacity="0.64"/>
<polygon points="229.4,247.3 243.2,361.4 179.7,362.2" fill="#013b5c" fill-opacity="0.84"/>
<polygon points="229.4,247.3 330.8,270.9 341.9,363.6" fill="#013e61" fill-opacity="0.58"/>
<polygon points="229.4,247.3 341.9,363.6 243.2,361.4" fill="#014467" fill-opacity="0.98"/>
<polygon points="330.8,270.9 407.8,259.6 341.9,363.6" fill="#014163" fill-opacity="0.86"/>
<polygon points="407.8,259.6 417.7,353.2 341.9,363.6" fill="#014265" fill-opacity="0.65"/>
<polygon points="407.8,259.6 491.1,253.7 417.7,353.2" fill="#014366" fill-opacity="0.84"/>
<polygon points="491.1,253.7 491.3,362.9 417.7,353.2" fill="#004b6f" fill-opacity="0.92"/>
<polygon points="491.1,253.7 585.7,279.5 491.3,362.9" fill="#004d72" fill-opacity="0.89"/>
<polygon points="585.7,279.5 577.0,358.1 491.3,362.9" fill="#00587b" fill-opacity="0.81"/>
<polygon points="585.7,279.5 653.9,244.9 577.0,358.1" fill="#004c71" fill-opacity="0.62"/>
<polygon points="653.9,244.9 645.2,335.0 577.0,358.1" fill="#015e7f" fill-opacity="0.92"/>
<polygon points="653.9,244.9 732.8,273.6 728.5,353.1" fill="#015e80" fill-opacity="0.98"/>
<polygon points="653.9,244.9 728.5,353.1 645.2,335.0" fill="#016283" fill-opacity="0.73"/>
<polygon points="732.8,273.6 812.2,248.0 820.7,338.9" fill="#015c7e" fill-opacity="0.74"/>
<polygon points="732.8,273.6 820.7,338.9 728.5,353.1" fill="#03728e" fill-opacity="0.95"/>
<polygon points="812.2,248.0 889.2,270.3 820.7,338.9" fill="#015d7f" fill-opacity="0.55"/>
<polygon points="889.2,270.3 889.3,366.5 820.7,338.9" fill="#03738f" fill-opacity="0.96"/>
<polygon points="4.2,342.1 86.1,359.6 91.2,440.2" fill="#013e60" fill-opacity="0.93"/>
<polygon points="4.2,342.1 91.2,440.2 -14.7,453.2" fill="#023657" fill-opacity="0.64"/>
<polygon points="86.1,359.6 179.7,362.2 91.2,440.2" fill="#014063" fill-opacity="0.75"/>
<polygon points="179.7,362.2 180.7,444.1 91.2,440.2" fill="#013f61" fill-opacity="0.98"/>
<polygon points="179.7,362.2 243.2,361.4 180.7,444.1" fill="#013c5e" fill-opacity="0.77"/>
<polygon points="243.2,361.4 228.5,453.6 180.7,444.1" fill="#00486c" fill-opacity="0.87"/>
<polygon points="243.2,361.4 341.9,363.6 228.5,453.6" fill="#00496d" fill-opacity="0.67"/>
<polygon points="341.9,363.6 324.3,452.8 228.5,453.6" fill="#00496d" fill-opacity="0.99"/>
<polygon points="341.9,363.6 417.7,353.2 419.9,424.2" fill="#00466a" fill-opacity="0.74"/>
<polygon points="341.9,363.6 419.9,424.2 324.3,452.8" fill="#005175" fill-opacity="0.62"/>
<polygon points="417.7,353.2 491.3,362.9 475.1,419.9" fill="#005276" fill-opacity="0.89"/>
<polygon points="417.7,353.2 475.1,419.9 419.9,424.2" fill="#004b6f" fill-opacity="1.0"/>
<polygon points="491.3,362.9 577.0,358.1 582.4,448.2" fill="#015f80" fill-opacity="0.61"/>
<polygon points="491.3,362.9 582.4,448.2 475.1,419.9" fill="#016383" fill-opacity="0.95"/>
<polygon points="577.0,358.1 645.2,335.0 645.2,423.3" fill="#015d7e" fill-opacity="0.56"/>
<polygon points="577.0,358.1 645.2,423.3 582.4,448.2" fill="#026887" fill-opacity="0.81"/>
<polygon points="645.2,335.0 728.5,353.1 645.2,423.3" fill="#026a88" fill-opacity="0.59"/>
<polygon points="728.5,353.1 731.8,448.5 645.2,423.3" fill="#026c8a" fill-opacity="0.91"/>
<polygon points="728.5,353.1 820.7,338.9 826.5,451.0" fill="#037a94" fill-opacity="0.63"/>
<polygon points="728.5,353.1 826.5,451.0 731.8,448.5" fill="#03718e" fill-opacity="0.75"/>
<polygon points="820.7,338.9 889.3,366.5 826.5,451.0" fill="#037a94" fill-opacity="1.0"/>
<polygon points="889.3,366.5 916.1,446.9 826.5,451.0" fill="#0591a5" fill-opacity="0.55"/>
<polygon points="-14.7,453.2 91.2,440.2 11.5,507.2" fill="#013f62" fill-opacity="0.61"/>
<polygon points="91.2,440.2 64.9,538.3 11.5,507.2" fill="#004568" fill-opacity="0.79"/>
<polygon points="91.2,440.2 180.7,444.1 64.9,538.3" fill="#00476a" fill-opacity="0.96"/>
<polygon points="180.7,444.1 167.7,518.6 64.9,538.3" fill="#004a6e" fill-opacity="0.63"/>
<polygon points="180.7,444.1 228.5,453.6 167.7,518.6" fill="#014264" fill-opacity="0.9"/>
<polygon points="228.5,453.6 232.7,518.8 167.7,518.6" fill="#00486c" fill-opacity="0.9"/>
<polygon points="228.5,453.6 324.3,452.8 321.7,524.8" fill="#004b6f" fill-opacity="0.74"/>
<polygon points="228.5,453.6 321.7,524.8 232.7,518.8" fill="#004e72" fill-opacity="0.72"/>
<polygon points="324.3,452.8 419.9,424.2 321.7,524.8" fill="#004e73" fill-opacity="0.73"/>
<polygon points="419.9,424.2 407.4,514.1 321.7,524.8" fill="#00577a" fill-opacity="0.58"/>
<polygon points="419.9,424.2 475.1,419.9 476.5,514.1" fill="#005578" fill-opacity="0.81"/>
<polygon points="419.9,424.2 476.5,514.1 407.4,514.1" fill="#015d7e" fill-opacity="0.96"/>
<polygon points="475.1,419.9 582.4,448.2 560.0,510.3" fill="#015d7f" fill-opacity="0.98"/>
<polygon points="475.1,419.9 560.0,510.3 476.5,514.1" fill="#016585" fill-opacity="0.72"/>
<polygon points="582.4,448.2 645.2,423.3 651.6,511.4" fill="#026e8b" fill-opacity="0.71"/>
<polygon points="582.4,448.2 651.6,511.4 560.0,510.3" fill="#03718e" fill-opacity="0.56"/>
<polygon points="645.2,423.3 731.8,448.5 651.6,511.4" fill="#047d97" fill-opacity="0.71"/>
<polygon points="731.8,448.5 746.7,526.6 651.6,511.4" fill="#026f8c" fill-opacity="0.59"/>
<polygon points="731.8,448.5 826.5,451.0 746.7,526.6" fill="#037c96" fill-opacity="0.67"/>
<polygon points="826.5,451.0 816.8,530.1 746.7,526.6" fill="#0591a6" fill-opacity="0.72"/>
<polygon points="826.5,451.0 916.1,446.9 890.9,507.5" fill="#0698ab" fill-opacity="0.68"/>
<polygon points="826.5,451.0 890.9,507.5 816.8,530.1" fill="#05899f" fill-opacity="0.98"/>
<polygon points="11.5,507.2 64.9,538.3 -14.5,606.5" fill="#00476a" fill-opacity="0.97"/>
<polygon points="64.9,538.3 77.0,603.4 -14.5,606.5" fill="#014265" fill-opacity="0.58"/>
<polygon points="64.9,538.3 167.7,518.6 157.0,624.8" fill="#004b6f" fill-opacity="0.7"/>
<polygon points="64.9,538.3 157.0,624.8 77.0,603.4" fill="#004568" fill-opacity="0.59"/>
<polygon points="167.7,518.6 232.7,518.8 228.6,610.6" fill="#004a6e" fill-opacity="0.69"/>
<polygon points="167.7,518.6 228.6,610.6 157.0,624.8" fill="#004f73" fill-opacity="1.0"/>
<polygon points="232.7,518.8 321.7,524.8 323.3,604.5" fill="#004c71" fill-opacity="0.91"/>
<polygon points="232.7,518.8 323.3,604.5 228.6,610.6" fill="#005478" fill-opacity="0.94"/>
<polygon points="321.7,524.8 407.4,514.1 323.3,604.5" fill="#016584" fill-opacity="0.96"/>
<polygon points="407.4,514.1 416.8,602.4 323.3,604.5" fill="#005679" fill-opacity="0.88"/>
<polygon points="407.4,514.1 476.5,514.1 475.2,600.0" fill="#026b89" fill-opacity="0.72"/>
<polygon points="407.4,514.1 475.2,600.0 416.8,602.4" fill="#00597c" fill-opacity="0.89"/>
<polygon points="476.5,514.1 560.0,510.3 475.2,600.0" fill="#026d8b" fill-opacity="0.89"/>
<polygon points="560.0,510.3 589.2,606.8 475.2,600.0" fill="#037a94" fill-opacity="0.88"/>
<polygon points="560.0,510.3 651.6,511.4 641.4,629.8" fill="#026d8b" fill-opacity="0.97"/>
<polygon points="560.0,510.3 641.4,629.8 589.2,606.8" fill="#05889f" fill-opacity="0.71"/>
<polygon points="651.6,511.4 746.7,526.6 741.3,629.3" fill="#058ea3" fill-opacity="0.97"/>
<polygon points="651.6,511.4 741.3,629.3 641.4,629.8" fill="#04859d" fill-opacity="0.7"/>
<polygon points="746.7,526.6 816.8,530.1 812.4,623.9" fill="#0693a7" fill-opacity="0.9"/>
<polygon points="746.7,526.6 812.4,623.9 741.3,629.3" fill="#0590a5" fill-opacity="0.86"/>
<polygon points="816.8,530.1 890.9,507.5 884.2,602.9" fill="#07a4b4" fill-opacity="0.72"/>
<polygon points="816.8,530.1 884.2,602.9 812.4,623.9" fill="#07a5b5" fill-opacity="0.61"/>
<polygon points="-14.5,606.5 77.0,603.4 91.8,695.8" fill="#004b6f" fill-opacity="0.92"/>
<polygon points="-14.5,606.5 91.8,695.8 10.1,700.6" fill="#00496e" fill-opacity="0.68"/>
<polygon points="77.0,603.4 157.0,624.8 91.8,695.8" fill="#004a6f" fill-opacity="0.71"/>
<polygon points="157.0,624.8 176.6,684.5 91.8,695.8" fill="#004f74" fill-opacity="0.74"/>
<polygon points="157.0,624.8 228.6,610.6 176.6,684.5" fill="#004e73" fill-opacity="0.82"/>
<polygon points="228.6,610.6 249.7,688.6 176.6,684.5" fill="#005276" fill-opacity="0.67"/>
<polygon points="228.6,610.6 323.3,604.5 249.7,688.6" fill="#005a7c" fill-opacity="0.96"/>
<polygon points="323.3,604.5 316.9,714.1 249.7,688.6" fill="#015e80" fill-opacity="0.63"/>
<polygon points="323.3,604.5 416.8,602.4 406.7,711.5" fill="#03728e" fill-opacity="0.81"/>
<polygon points="323.3,604.5 406.7,711.5 316.9,714.1" fill="#016282" fill-opacity="0.99"/>
<polygon points="416.8,602.4 475.2,600.0 406.7,711.5" fill="#026887" fill-opacity="0.83"/>
<polygon points="475.2,600.0 483.5,708.5 406.7,711.5" fill="#03728e" fill-opacity="0.92"/>
<polygon points="475.2,600.0 589.2,606.8 586.7,704.7" fill="#037b95" fill-opacity="0.83"/>
<polygon points="475.2,600.0 586.7,704.7 483.5,708.5" fill="#05889f" fill-opacity="0.87"/>
<polygon points="589.2,606.8 641.4,629.8 645.4,706.2" fill="#04859c" fill-opacity="0.69"/>
<polygon points="589.2,606.8 645.4,706.2 586.7,704.7" fill="#058ea3" fill-opacity="0.79"/>
<polygon points="641.4,629.8 741.3,629.3 751.9,711.1" fill="#069cae" fill-opacity="0.58"/>
<polygon points="641.4,629.8 751.9,711.1 645.4,706.2" fill="#058aa1" fill-opacity="0.55"/>
<polygon points="741.3,629.3 812.4,623.9 816.3,696.3" fill="#07a7b6" fill-opacity="0.63"/>
<polygon points="741.3,629.3 816.3,696.3 751.9,711.1" fill="#07a8b7" fill-opacity="0.76"/>
<polygon points="812.4,623.9 884.2,602.9 816.3,696.3" fill="#08afbc" fill-opacity="0.84"/>
<polygon points="884.2,602.9 886.2,709.9 816.3,696.3" fill="#08b4c0" fill-opacity="0.6"/>
  </g>
</svg>