<svg xmlns="http://www.w3.org/2000/svg" viewBox="0 0 900 700" preserveAspectRatio="xMidYMid slice">
  <defs>
    <linearGradient id="bg11" x1="0" y1="0" x2="1" y2="1">
      <stop offset="0" stop-color="#042442"/>
      <stop offset="1" stop-color="#06385D"/>
    </linearGradient>
  </defs>
  <rect width="900" height="700" fill="url(#bg11)"/>
  <g>
<polygon points="-1.6,2.2 96.4,-1.3 65.7,86.2" fill="#042746" fill-opacity="0.91"/>
<polygon points="-1.6,2.2 65.7,86.2 -10.6,78.0" fill="#042544" fill-opacity="0.96"/>
<polygon points="96.4,-1.3 163.9,3.2 161.6,100.1" fill="#042c4d" fill-opacity="0.71"/>
<polygon points="96.4,-1.3 161.6,100.1 65.7,86.2" fill="#042746" fill-opacity="0.75"/>
<polygon points="163.9,3.2 234.6,0.4 161.6,100.1" fill="#042c4c" fill-opacity="0.9"/>
<polygon points="234.6,0.4 246.1,92.7 161.6,100.1" fill="#042d4f" fill-opacity="0.56"/>
<polygon points="234.6,0.4 331.7,10.8 246.1,92.7" fill="#053053" fill-opacity="0.58"/>
<polygon points="331.7,10.8 327.3,93.5 246.1,92.7" fill="#053356" fill-opacity="0.63"/>
<polygon points="331.7,10.8 395.1,-7.2 327.3,93.5" fill="#052f52" fill-opacity="0.9"/>
<polygon points="395.1,-7.2 407.6,79.3 327.3,93.5" fill="#053052" fill-opacity="0.62"/>
<polygon points="395.1,-7.2 476.8,11.4 508.0,105.7" fill="#053558" fill-opacity="0.88"/>
<polygon points="395.1,-7.2 508.0,105.7 407.6,79.3" fill="#05375c" fill-opacity="0.86"/>
<polygon points="476.8,11.4 579.4,-16.8 508.0,105.7" fill="#053a5f" fill-opacity="0.77"/>
<polygon points="579.4,-16.8 584.4,95.1 508.0,105.7" fill="#043d62" fill-opacity="0.59"/>
<polygon points="579.4,-16.8 671.1,17.1 648.2,77.6" fill="#05385d" fill-opacity="0.79"/>
<polygon points="579.4,-16.8 648.2,77.6 584.4,95.1" fill="#05395e" fill-opacity="0.88"/>
<polygon points="671.1,17.1 741.7,4.2 729.1,71.7" fill="#043f64" fill-opacity="0.79"/>
<polygon points="671.1,17.1 729.1,71.7 648.2,77.6" fill="#034166" fill-opacity="0.8"/>
<polygon points="741.7,4.2 806.4,-17.8 827.3,83.8" fill="#043f64" fill-opacity="0.72"/>
<polygon points="741.7,4.2 827.3,83.8 729.1,71.7" fill="#024469" fill-opacity="0.96"/>
<polygon points="806.4,-17.8 901.0,-16.2 827.3,83.8" fill="#034065" fill-opacity="0.93"/>
<polygon points="901.0,-16.2 911.9,83.3 827.3,83.8" fill="#01496e" fill-opacity="0.79"/>
<polygon points="-10.6,78.0 65.7,86.2 15.7,187.8" fill="#042a4a" fill-opacity="0.64"/>
<polygon points="65.7,86.2 64.7,164.3 15.7,187.8" fill="#042c4c" fill-opacity="0.78"/>
<polygon points="65.7,86.2 161.6,100.1 64.7,164.3" fill="#042d4e" fill-opacity="0.56"/>
<polygon points="161.6,100.1 177.7,173.9 64.7,164.3" fill="#053255" fill-opacity="0.78"/>
<polygon points="161.6,100.1 246.1,92.7 177.7,173.9" fill="#052f50" fill-opacity="0.91"/>
<polygon points="246.1,92.7 262.0,171.2 177.7,173.9" fill="#053255" fill-opacity="0.77"/>
<polygon points="246.1,92.7 327.3,93.5 312.6,179.8" fill="#053458" fill-opacity="0.58"/>
<polygon points="246.1,92.7 312.6,179.8 262.0,171.2" fill="#053357" fill-opacity="0.74"/>
<polygon points="327.3,93.5 407.6,79.3 418.7,166.5" fill="#05395e" fill-opacity="0.97"/>
<polygon points="327.3,93.5 418.7,166.5 312.6,179.8" fill="#053458" fill-opacity="0.76"/>
<polygon points="407.6,79.3 508.0,105.7 476.7,168.8" fill="#05355a" fill-opacity="0.75"/>
<polygon points="407.6,79.3 476.7,168.8 418.7,166.5" fill="#053b60" fill-opacity="0.96"/>
<polygon points="508.0,105.7 584.4,95.1 588.7,184.5" fill="#043c61" fill-opacity="0.69"/>
<polygon points="508.0,105.7 588.7,184.5 476.7,168.8" fill="#053a5f" fill-opacity="0.83"/>
<polygon points="584.4,95.1 648.2,77.6 641.4,165.7" fill="#034267" fill-opacity="0.61"/>
<polygon points="584.4,95.1 641.4,165.7 588.7,184.5" fill="#034267" fill-opacity="0.56"/>
<polygon points="648.2,77.6 729.1,71.7 722.7,158.8" fill="#043e63" fill-opacity="0.65"/>
<polygon points="648.2,77.6 722.7,158.8 641.4,165.7" fill="#034368" fill-opacity="0.69"/>
<polygon points="729.1,71.7 827.3,83.8 722.7,158.8" fill="#034267" fill-opacity="0.83"/>
<polygon points="827.3,83.8 828.4,163.2 722.7,158.8" fill="#034368" fill-opacity="0.88"/>
<polygon points="827.3,83.8 911.9,83.3 902.0,173.1" fill="#02456a" fill-opacity="0.78"/>
<polygon points="827.3,83.8 902.0,173.1 828.4,163.2" fill="#02476c" fill-opacity="0.64"/>
<polygon points="15.7,187.8 64.7,164.3 69.1,267.8" fill="#052e50" fill-opacity="0.75"/>
<polygon points="15.7,187.8 69.1,267.8 -10.6,271.0" fill="#052e4f" fill-opacity="0.74"/>
<polygon points="64.7,164.3 177.7,173.9 69.1,267.8" fill="#053052" fill-opacity="0.62"/>
<polygon points="177.7,173.9 150.5,259.6 69.1,267.8" fill="#053052" fill-opacity="0.83"/>
<polygon points="177.7,173.9 262.0,171.2 150.5,259.6" fill="#053457" fill-opacity="0.79"/>
<polygon points="262.0,171.2 235.6,254.0 150.5,259.6" fill="#05375c" fill-opacity="0.83"/>
<polygon points="262.0,171.2 312.6,179.8 343.5,273.7" fill="#053a5f" fill-opacity="0.65"/>
<polygon points="262.0,171.2 343.5,273.7 235.6,254.0" fill="#05395e" fill-opacity="0.91"/>
<polygon points="312.6,179.8 418.7,166.5 402.4,276.6" fill="#043d62" fill-opacity="0.69"/>
<polygon points="312.6,179.8 402.4,276.6 343.5,273.7" fill="#05395e" fill-opacity="0.97"/>
<polygon points="418.7,166.5 476.7,168.8 481.0,258.6" fill="#053a5f" fill-opacity="1.0"/>
<polygon points="418.7,166.5 481.0,258.6 402.4,276.6" fill="#034065" fill-opacity="0.61"/>
<polygon points="476.7,168.8 588.7,184.5 481.0,258.6" fill="#043c61" fill-opacity="0.88"/>
<polygon points="588.7,184.5 584.9,267.7 481.0,258.6" fill="#034065" fill-opacity="0.59"/>
<polygon points="588.7,184.5 641.4,165.7 640.8,280.5" fill="#02466b" fill-opacity="0.74"/>
<polygon points="588.7,184.5 640.8,280.5 584.9,267.7" fill="#02476c" fill-opacity="0.61"/>
<polygon points="641.4,165.7 722.7,158.8 640.8,280.5" fill="#024469" fill-opacity="0.86"/>
<polygon points="722.7,158.8 726.5,253.6 640.8,280.5" fill="#034368" fill-opacity="0.64"/>
<polygon points="722.7,158.8 828.4,163.2 726.5,253.6" fill="#01496e" fill-opacity="0.96"/>
<polygon points="828.4,163.2 827.6,256.2 726.5,253.6" fill="#004f74" fill-opacity="0.6"/>
<polygon points="828.4,163.2 902.0,173.1 893.0,246.8" fill="#004d72" fill-opacity="0.89"/>
<polygon points="828.4,163.2 893.0,246.8 827.6,256.2" fill="#004d72" fill-opacity="0.86"/>
<polygon points="-10.6,271.0 69.1,267.8 -14.1,353.0" fill="#052e50" fill-opacity="0.58"/>
<polygon points="69.1,267.8 73.0,353.7 -14.1,353.0" fill="#053052" fill-opacity="0.57"/>
<polygon points="69.1,267.8 150.5,259.6 159.2,348.3" fill="#053559" fill-opacity="0.78"/>
<polygon points="69.1,267.8 159.2,348.3 73.0,353.7" fill="#053559" fill-opacity="0.62"/>
<polygon points="150.5,259.6 235.6,254.0 261.2,349.4" fill="#053559" fill-opacity="0.64"/>
<polygon points="150.5,259.6 261.2,349.4 159.2,348.3" fill="#053a5f" fill-opacity="1.0"/>
<polygon points="235.6,254.0 343.5,273.7 329.8,363.5" fill="#043f64" fill-opacity="0.59"/>
<polygon points="235.6,254.0 329.8,363.5 261.2,349.4" fill="#05375c" fill-opacity="0.98"/>
<polygon points="343.5,273.7 402.4,276.6 398.2,337.3" fill="#043e63" fill-opacity="0.89"/>
<polygon points="343.5,273.7 398.2,337.3 329.8,363.5" fill="#043d62" fill-opacity="0.76"/>
<polygon points="402.4,276.6 481.0,258.6 398.2,337.3" fill="#034065" fill-opacity="0.74"/>
<polygon points="481.0,258.6 504.9,361.7 398.2,337.3" fill="#034368" fill-opacity="0.56"/>
<polygon points="481.0,258.6 584.9,267.7 564.1,338.6" fill="#02466b" fill-opacity="0.93"/>
<polygon points="481.0,258.6 564.1,338.6 504.9,361.7" fill="#034267" fill-opacity="0.75"/>
<polygon points="584.9,267.7 640.8,280.5 662.8,366.2" fill="#014a6f" fill-opacity="0.73"/>
<polygon points="584.9,267.7 662.8,366.2 564.1,338.6" fill="#02466b" fill-opacity="0.62"/>
<polygon points="640.8,280.5 726.5,253.6 725.9,366.5" fill="#014b70" fill-opacity="0.56"/>
<polygon points="640.8,280.5 725.9,366.5 662.8,366.2" fill="#004f74" fill-opacity="0.91"/>
<polygon points="726.5,253.6 827.6,256.2 725.9,366.5" fill="#004f74" fill-opacity="0.94"/>
<polygon points="827.6,256.2 831.3,353.8 725.9,366.5" fill="#00577a" fill-opacity="0.73"/>
<polygon points="827.6,256.2 893.0,246.8 897.3,335.4" fill="#00597c" fill-opacity="0.78"/>
<polygon points="827.6,256.2 897.3,335.4 831.3,353.8" fill="#026e8b" fill-opacity="0.91"/>
<polygon points="-14.1,353.0 73.0,353.7 -15.9,454.5" fill="#053356" fill-opacity="0.96"/>
<polygon points="73.0,353.7 72.8,445.0 -15.9,454.5" fill="#05395e" fill-opacity="0.9"/>
<polygon points="73.0,353.7 159.2,348.3 72.8,445.0" fill="#053a5f" fill-opacity="0.73"/>
<polygon points="159.2,348.3 155.3,449.4 72.8,445.0" fill="#043d62" fill-opacity="0.95"/>
<polygon points="159.2,348.3 261.2,349.4 155.3,449.4" fill="#043d62" fill-opacity="0.9"/>
<polygon points="261.2,349.4 248.8,429.9 155.3,449.4" fill="#034065" fill-opacity="0.73"/>
<polygon points="261.2,349.4 329.8,363.5 248.8,429.9" fill="#034065" fill-opacity="0.58"/>
<polygon points="329.8,363.5 316.1,445.6 248.8,429.9" fill="#043f64" fill-opacity="0.76"/>
<polygon points="329.8,363.5 398.2,337.3 316.1,445.6" fill="#043d62" fill-opacity="0.71"/>
<polygon points="398.2,337.3 394.3,427.5 316.1,445.6" fill="#024469" fill-opacity="0.83"/>
<polygon points="398.2,337.3 504.9,361.7 492.9,450.5" fill="#024469" fill-opacity="0.98"/>
<polygon points="398.2,337.3 492.9,450.5 394.3,427.5" fill="#02476c" fill-opacity="0.7"/>
<polygon points="504.9,361.7 564.1,338.6 576.7,429.4" fill="#014a6f" fill-opacity="0.81"/>
<polygon points="504.9,361.7 576.7,429.4 492.9,450.5" fill="#014a6f" fill-opacity="0.73"/>
<polygon points="564.1,338.6 662.8,366.2 668.9,426.6" fill="#005478" fill-opacity="0.84"/>
<polygon points="564.1,338.6 668.9,426.6 576.7,429.4" fill="#004e73" fill-opacity="0.89"/>
<polygon points="662.8,366.2 725.9,366.5 719.8,429.0" fill="#016383" fill-opacity="0.56"/>
<polygon points="662.8,366.2 719.8,429.0 668.9,426.6" fill="#005679" fill-opacity="0.88"/>
<polygon points="725.9,366.5 831.3,353.8 816.3,421.3" fill="#005578" fill-opacity="0.73"/>
<polygon points="725.9,366.5 816.3,421.3 719.8,429.0" fill="#004f74" fill-opacity="0.64"/>
<polygon points="831.3,353.8 897.3,335.4 816.3,421.3" fill="#016282" fill-opacity="0.59"/>
<polygon points="897.3,335.4 888.9,432.7 816.3,421.3" fill="#026786" fill-opacity="0.96"/>
<polygon points="-15.9,454.5 72.8,445.0 77.1,539.4" fill="#053a5f" fill-opacity="0.78"/>
<polygon points="-15.9,454.5 77.1,539.4 2.5,511.5" fill="#043e63" fill-opacity="0.81"/>
<polygon points="72.8,445.0 155.3,449.4 180.1,530.8" fill="#034267" fill-opacity="0.84"/>
<polygon points="72.8,445.0 180.1,530.8 77.1,539.4" fill="#034166" fill-opacity="0.58"/>
<polygon points="155.3,449.4 248.8,429.9 252.0,528.1" fill="#034166" fill-opacity="0.89"/>
<polygon points="155.3,449.4 252.0,528.1 180.1,530.8" fill="#043d62" fill-opacity="0.97"/>
<polygon points="248.8,429.9 316.1,445.6 252.0,528.1" fill="#034065" fill-opacity="0.76"/>
<polygon points="316.1,445.6 314.9,507.9 252.0,528.1" fill="#034267" fill-opacity="0.77"/>
<polygon points="316.1,445.6 394.3,427.5 314.9,507.9" fill="#02466b" fill-opacity="0.58"/>
<polygon points="394.3,427.5 392.5,540.1 314.9,507.9" fill="#014b70" fill-opacity="0.74"/>
<polygon points="394.3,427.5 492.9,450.5 392.5,540.1" fill="#01496e" fill-opacity="0.82"/>
<polygon points="492.9,450.5 497.8,542.0 392.5,540.1" fill="#014b70" fill-opacity="0.68"/>
<polygon points="492.9,450.5 576.7,429.4 497.8,542.0" fill="#004e73" fill-opacity="0.8"/>
<polygon points="576.7,429.4 556.3,530.0 497.8,542.0" fill="#004d72" fill-opacity="0.87"/>
<polygon points="576.7,429.4 668.9,426.6 653.9,533.5" fill="#004f74" fill-opacity="0.56"/>
<polygon points="576.7,429.4 653.9,533.5 556.3,530.0" fill="#004f74" fill-opacity="0.57"/>
<polygon points="668.9,426.6 719.8,429.0 653.9,533.5" fill="#005075" fill-opacity="0.89"/>
<polygon points="719.8,429.0 730.1,543.4 653.9,533.5" fill="#026686" fill-opacity="0.95"/>
<polygon points="719.8,429.0 816.3,421.3 730.1,543.4" fill="#037691" fill-opacity="0.57"/>
<polygon points="816.3,421.3 803.6,526.7 730.1,543.4" fill="#058da2" fill-opacity="0.98"/>
<polygon points="816.3,421.3 888.9,432.7 908.1,539.7" fill="#02708d" fill-opacity="0.96"/>
<polygon points="816.3,421.3 908.1,539.7 803.6,526.7" fill="#04819a" fill-opacity="0.76"/>
<polygon points="2.5,511.5 77.1,539.4 8.1,620.0" fill="#034166" fill-opacity="0.66"/>
<polygon points="77.1,539.4 91.9,627.8 8.1,620.0" fill="#034166" fill-opacity="0.97"/>
<polygon points="77.1,539.4 180.1,530.8 91.9,627.8" fill="#034368" fill-opacity="0.76"/>
<polygon points="180.1,530.8 158.5,619.3 91.9,627.8" fill="#01486d" fill-opacity="0.92"/>
<polygon points="180.1,530.8 252.0,528.1 259.2,626.1" fill="#02466b" fill-opacity="0.6"/>
<polygon points="180.1,530.8 259.2,626.1 158.5,619.3" fill="#02476c" fill-opacity="0.76"/>
<polygon points="252.0,528.1 314.9,507.9 324.4,623.2" fill="#02456a" fill-opacity="0.57"/>
<polygon points="252.0,528.1 324.4,623.2 259.2,626.1" fill="#01496e" fill-opacity="0.61"/>
<polygon points="314.9,507.9 392.5,540.1 324.4,623.2" fill="#01496e" fill-opacity="0.85"/>
<polygon points="392.5,540.1 421.6,615.2 324.4,623.2" fill="#004d72" fill-opacity="0.67"/>
<polygon points="392.5,540.1 497.8,542.0 421.6,615.2" fill="#004f74" fill-opacity="0.74"/>
<polygon points="497.8,542.0 495.2,608.2 421.6,615.2" fill="#016081" fill-opacity="0.79"/>
<polygon points="497.8,542.0 556.3,530.0 575.6,616.5" fill="#02708d" fill-opacity="0.98"/>
<polygon points="497.8,542.0 575.6,616.5 495.2,608.2" fill="#026887" fill-opacity="0.66"/>
<polygon points="556.3,530.0 653.9,533.5 575.6,616.5" fill="#005579" fill-opacity="0.95"/>
<polygon points="653.9,533.5 640.1,617.6 575.6,616.5" fill="#047d96" fill-opacity="0.83"/>
<polygon points="653.9,533.5 730.1,543.4 640.1,617.6" fill="#026f8c" fill-opacity="0.67"/>
<polygon points="730.1,543.4 753.3,626.5 640.1,617.6" fill="#058aa0" fill-opacity="0.8"/>
<polygon points="730.1,543.4 803.6,526.7 753.3,626.5" fill="#0589a0" fill-opacity="0.83"/>
<polygon points="803.6,526.7 826.0,608.4 753.3,626.5" fill="#069bad" fill-opacity="0.64"/>
<polygon points="803.6,526.7 908.1,539.7 826.0,608.4" fill="#0589a0" fill-opacity="0.99"/>
<polygon points="908.1,539.7 908.1,615.5 826.0,608.4" fill="#08b2be" fill-opacity="0.95"/>
<polygon points="8.1,620.0 91.9,627.8 67.5,709.2" fill="#043f64" fill-opacity="0.58"/>
<polygon points="8.1,620.0 67.5,709.2 -2.0,712.4" fill="#034267" fill-opacity="0.74"/>
<polygon points="91.9,627.8 158.5,619.3 67.5,709.2" fill="#02466b" fill-opacity="0.6"/>
<polygon points="158.5,619.3 147.5,703.7 67.5,709.2" fill="#01486d" fill-opacity="0.58"/>
<polygon points="158.5,619.3 259.2,626.1 244.8,690.1" fill="#02466b" fill-opacity="0.85"/>
<polygon points="158.5,619.3 244.8,690.1 147.5,703.7" fill="#014a6f" fill-opacity="0.83"/>
<polygon points="259.2,626.1 324.4,623.2 244.8,690.1" fill="#014b70" fill-opacity="0.77"/>
<polygon points="324.4,623.2 334.1,699.9 244.8,690.1" fill="#004c71" fill-opacity="0.7"/>
<polygon points="324.4,623.2 421.6,615.2 334.1,699.9" fill="#00587b" fill-opacity="0.93"/>
<polygon points="421.6,615.2 413.0,715.5 334.1,699.9" fill="#004e73" fill-opacity="0.6"/>
<polygon points="421.6,615.2 495.2,608.2 413.0,715.5" fill="#026a88" fill-opacity="0.83"/>
<polygon points="495.2,608.2 482.5,682.0 413.0,715.5" fill="#03718e" fill-opacity="0.65"/>
<polygon points="495.2,608.2 575.6,616.5 482.5,682.0" fill="#016685" fill-opacity="0.67"/>
<polygon points="575.6,616.5 565.9,706.5 482.5,682.0" fill="#04819a" fill-opacity="0.72"/>
<polygon points="575.6,616.5 640.1,617.6 644.3,687.9" fill="#04839b" fill-opacity="1.0"/>
<polygon points="575.6,616.5 644.3,687.9 565.9,706.5" fill="#037893" fill-opacity="0.8"/>
<polygon points="640.1,617.6 753.3,626.5 644.3,687.9" fill="#0693a7" fill-opacity="0.96"/>
<polygon points="753.3,626.5 750.3,705.9 644.3,687.9" fill="#0694a8" fill-opacity="0.72"/>
<polygon points="753.3,626.5 826.0,608.4 750.3,705.9" fill="#058ba1" fill-opacity="0.94"/>
<polygon points="826.0,608.4 816.2,714.4 750.3,705.9" fill="#0696a9" fill-opacity="0.59"/>
<polygon points="826.0,608.4 908.1,615.5 816.2,714.4" fill="#08acba" fill-opacity="0.77"/>
<polygon points="908.1,615.5 894.1,706.1 816.2,714.4" fill="#09bdc6" fill-opacity="0.68"/>
  </g>
</svg>