<svg xmlns="http://www.w3.org/2000/svg" viewBox="0 0 900 700" preserveAspectRatio="xMidYMid slice">
  <defs>
    <linearGradient id="bg55" x1="0" y1="0" x2="1" y2="1">
      <stop offset="0" stop-color="#042442"/>
      <stop offset="1" stop-color="#06385D"/>
    </linearGradient>
  </defs>
  <rect width="900" height="700" fill="url(#bg55)"/>
  <g>
<polygon points="-14.1,16.6 69.8,8.8 -15.4,77.6" fill="#053a5f" fill-opacity="0.81"/>
<polygon points="69.8,8.8 81.9,96.6 -15.4,77.6" fill="#05385d" fill-opacity="0.99"/>
<polygon points="69.8,8.8 175.4,9.1 153.2,97.2" fill="#034065" fill-opacity="0.91"/>
<polygon points="69.8,8.8 153.2,97.2 81.9,96.6" fill="#043d62" fill-opacity="0.91"/>
<polygon points="175.4,9.1 238.6,-5.5 153.2,97.2" fill="#043e63" fill-opacity="0.68"/>
<polygon points="238.6,-5.5 242.4,80.4 153.2,97.2" fill="#034368" fill-opacity="0.82"/>
<polygon points="238.6,-5.5 334.9,17.1 338.6,73.1" fill="#02456a" fill-opacity="0.58"/>
<polygon points="238.6,-5.5 338.6,73.1 242.4,80.4" fill="#034368" fill-opacity="0.74"/>
<polygon points="334.9,17.1 414.7,1.5 424.0,80.5" fill="#034368" fill-opacity="0.93"/>
<polygon points="334.9,17.1 424.0,80.5 338.6,73.1" fill="#02466b" fill-opacity="0.77"/>
<polygon points="414.7,1.5 487.1,-3.5 486.2,76.6" fill="#014a6f" fill-opacity="0.83"/>
<polygon points="414.7,1.5 486.2,76.6 424.0,80.5" fill="#02466b" fill-opacity="0.64"/>
<polygon points="487.1,-3.5 580.3,-2.6 486.2,76.6" fill="#01486d" fill-opacity="0.84"/>
<polygon points="580.3,-2.6 571.6,100.1 486.2,76.6" fill="#014b70" fill-opacity="0.86"/>
<polygon points="580.3,-2.6 655.7,4.8 571.6,100.1" fill="#005075" fill-opacity="0.89"/>
<polygon points="655.7,4.8 645.0,89.5 571.6,100.1" fill="#005075" fill-opacity="0.78"/>
<polygon points="655.7,4.8 740.9,-16.9 645.0,89.5" fill="#005075" fill-opacity="0.81"/>
<polygon points="740.9,-16.9 734.3,80.2 645.0,89.5" fill="#005075" fill-opacity="0.78"/>
<polygon points="740.9,-16.9 808.9,7.6 805.5,94.8" fill="#005075" fill-opacity="0.87"/>
<polygon points="740.9,-16.9 805.5,94.8 734.3,80.2" fill="#005075" fill-opacity="0.71"/>
<polygon points="808.9,7.6 902.4,12.4 805.5,94.8" fill="#005075" fill-opacity="0.81"/>
<polygon points="902.4,12.4 897.1,86.4 805.5,94.8" fill="#005075" fill-opacity="0.7"/>
<polygon points="-15.4,77.6 81.9,96.6 3.5,160.6" fill="#043f64" fill-opacity="0.91"/>
<polygon points="81.9,96.6 92.7,189.4 3.5,160.6" fill="#034368" fill-opacity="0.81"/>
<polygon points="81.9,96.6 153.2,97.2 92.7,189.4" fill="#034267" fill-opacity="0.66"/>
<polygon points="153.2,97.2 155.2,186.6 92.7,189.4" fill="#024469" fill-opacity="0.8"/>
<polygon points="153.2,97.2 242.4,80.4 155.2,186.6" fill="#034065" fill-opacity="0.84"/>
<polygon points="242.4,80.4 252.3,167.6 155.2,186.6" fill="#02476c" fill-opacity="0.63"/>
<polygon points="242.4,80.4 338.6,73.1 252.3,167.6" fill="#01486d" fill-opacity="0.67"/>
<polygon points="338.6,73.1 319.4,159.7 252.3,167.6" fill="#004c71" fill-opacity="0.67"/>
<polygon points="338.6,73.1 424.0,80.5 319.4,159.7" fill="#004c71" fill-opacity="0.89"/>
<polygon points="424.0,80.5 406.1,173.2 319.4,159.7" fill="#014a6f" fill-opacity="0.62"/>
<polygon points="424.0,80.5 486.2,76.6 406.1,173.2" fill="#004d72" fill-opacity="0.72"/>
<polygon points="486.2,76.6 490.5,174.3 406.1,173.2" fill="#005075" fill-opacity="0.77"/>
<polygon points="486.2,76.6 571.6,100.1 574.4,161.2" fill="#004d72" fill-opacity="0.68"/>
<polygon points="486.2,76.6 574.4,161.2 490.5,174.3" fill="#005075" fill-opacity="0.86"/>
<polygon points="571.6,100.1 645.0,89.5 645.1,177.2" fill="#005075" fill-opacity="0.8"/>
<polygon points="571.6,100.1 645.1,177.2 574.4,161.2" fill="#005075" fill-opacity="0.89"/>
<polygon points="645.0,89.5 734.3,80.2 735.4,163.0" fill="#005075" fill-opacity="0.69"/>
<polygon points="645.0,89.5 735.4,163.0 645.1,177.2" fill="#005075" fill-opacity="0.99"/>
<polygon points="734.3,80.2 805.5,94.8 735.4,163.0" fill="#005075" fill-opacity="0.8"/>
<polygon points="805.5,94.8 810.5,192.6 735.4,163.0" fill="#005075" fill-opacity="0.67"/>
<polygon points="805.5,94.8 897.1,86.4 910.3,183.3" fill="#005075" fill-opacity="0.94"/>
<polygon points="805.5,94.8 910.3,183.3 810.5,192.6" fill="#005075" fill-opacity="0.6"/>
<polygon points="3.5,160.6 92.7,189.4 88.9,264.8" fill="#043e63" fill-opacity="0.82"/>
<polygon points="3.5,160.6 88.9,264.8 -5.0,259.5" fill="#034065" fill-opacity="0.9"/>
<polygon points="92.7,189.4 155.2,186.6 168.5,245.4" fill="#02466b" fill-opacity="0.85"/>
<polygon points="92.7,189.4 168.5,245.4 88.9,264.8" fill="#034368" fill-opacity="0.65"/>
<polygon points="155.2,186.6 252.3,167.6 252.8,251.5" fill="#014b70" fill-opacity="0.99"/>
<polygon points="155.2,186.6 252.8,251.5 168.5,245.4" fill="#01496e" fill-opacity="0.76"/>
<polygon points="252.3,167.6 319.4,159.7 321.3,263.6" fill="#014b70" fill-opacity="0.6"/>
<polygon points="252.3,167.6 321.3,263.6 252.8,251.5" fill="#01496e" fill-opacity="0.59"/>
<polygon points="319.4,159.7 406.1,173.2 321.3,263.6" fill="#014a6f" fill-opacity="0.71"/>
<polygon points="406.1,173.2 424.5,259.0 321.3,263.6" fill="#004e73" fill-opacity="0.98"/>
<polygon points="406.1,173.2 490.5,174.3 495.9,251.8" fill="#005075" fill-opacity="0.98"/>
<polygon points="406.1,173.2 495.9,251.8 424.5,259.0" fill="#004f74" fill-opacity="0.92"/>
<polygon points="490.5,174.3 574.4,161.2 587.8,253.2" fill="#005075" fill-opacity="0.87"/>
<polygon points="490.5,174.3 587.8,253.2 495.9,251.8" fill="#005075" fill-opacity="0.99"/>
<polygon points="574.4,161.2 645.1,177.2 655.9,269.1" fill="#005075" fill-opacity="0.84"/>
<polygon points="574.4,161.2 655.9,269.1 587.8,253.2" fill="#005075" fill-opacity="0.64"/>
<polygon points="645.1,177.2 735.4,163.0 655.9,269.1" fill="#005075" fill-opacity="0.59"/>
<polygon points="735.4,163.0 743.2,260.5 655.9,269.1" fill="#005075" fill-opacity="0.95"/>
<polygon points="735.4,163.0 810.5,192.6 823.2,244.5" fill="#005075" fill-opacity="0.76"/>
<polygon points="735.4,163.0 823.2,244.5 743.2,260.5" fill="#005075" fill-opacity="0.56"/>
<polygon points="810.5,192.6 910.3,183.3 823.2,244.5" fill="#005075" fill-opacity="0.91"/>
<polygon points="910.3,183.3 916.7,264.6 823.2,244.5" fill="#005478" fill-opacity="0.61"/>
<polygon points="-5.0,259.5 88.9,264.8 81.1,355.2" fill="#024469" fill-opacity="0.57"/>
<polygon points="-5.0,259.5 81.1,355.2 3.3,341.0" fill="#01496e" fill-opacity="0.99"/>
<polygon points="88.9,264.8 168.5,245.4 81.1,355.2" fill="#02456a" fill-opacity="0.9"/>
<polygon points="168.5,245.4 160.6,336.1 81.1,355.2" fill="#014b70" fill-opacity="0.65"/>
<polygon points="168.5,245.4 252.8,251.5 235.0,363.7" fill="#004e73" fill-opacity="0.77"/>
<polygon points="168.5,245.4 235.0,363.7 160.6,336.1" fill="#014b70" fill-opacity="0.65"/>
<polygon points="252.8,251.5 321.3,263.6 235.0,363.7" fill="#004d72" fill-opacity="0.6"/>
<polygon points="321.3,263.6 317.2,350.5 235.0,363.7" fill="#005075" fill-opacity="0.86"/>
<polygon points="321.3,263.6 424.5,259.0 317.2,350.5" fill="#004f74" fill-opacity="0.77"/>
<polygon points="424.5,259.0 416.3,339.8 317.2,350.5" fill="#005075" fill-opacity="0.75"/>
<polygon points="424.5,259.0 495.9,251.8 501.5,349.1" fill="#005075" fill-opacity="0.9"/>
<polygon points="424.5,259.0 501.5,349.1 416.3,339.8" fill="#005075" fill-opacity="0.6"/>
<polygon points="495.9,251.8 587.8,253.2 588.1,339.2" fill="#005075" fill-opacity="0.94"/>
<polygon points="495.9,251.8 588.1,339.2 501.5,349.1" fill="#005075" fill-opacity="0.97"/>
<polygon points="587.8,253.2 655.9,269.1 588.1,339.2" fill="#005075" fill-opacity="0.87"/>
<polygon points="655.9,269.1 652.0,344.9 588.1,339.2" fill="#005075" fill-opacity="0.96"/>
<polygon points="655.9,269.1 743.2,260.5 652.0,344.9" fill="#005075" fill-opacity="0.71"/>
<polygon points="743.2,260.5 728.6,347.3 652.0,344.9" fill="#005075" fill-opacity="0.87"/>
<polygon points="743.2,260.5 823.2,244.5 728.6,347.3" fill="#005075" fill-opacity="0.7"/>
<polygon points="823.2,244.5 815.7,346.1 728.6,347.3" fill="#005075" fill-opacity="0.94"/>
<polygon points="823.2,244.5 916.7,264.6 912.7,343.6" fill="#005075" fill-opacity="0.6"/>
<polygon points="823.2,244.5 912.7,343.6 815.7,346.1" fill="#015f80" fill-opacity="0.88"/>
<polygon points="3.3,341.0 81.1,355.2 -15.2,446.7" fill="#02476c" fill-opacity="0.55"/>
<polygon points="81.1,355.2 79.6,420.0 -15.2,446.7" fill="#004c71" fill-opacity="0.94"/>
<polygon points="81.1,355.2 160.6,336.1 172.4,445.8" fill="#004c71" fill-opacity="0.76"/>
<polygon points="81.1,355.2 172.4,445.8 79.6,420.0" fill="#014a6f" fill-opacity="0.71"/>
<polygon points="160.6,336.1 235.0,363.7 250.8,449.3" fill="#005075" fill-opacity="0.89"/>
<polygon points="160.6,336.1 250.8,449.3 172.4,445.8" fill="#005075" fill-opacity="0.69"/>
<polygon points="235.0,363.7 317.2,350.5 319.4,450.0" fill="#005075" fill-opacity="0.56"/>
<polygon points="235.0,363.7 319.4,450.0 250.8,449.3" fill="#005075" fill-opacity="0.89"/>
<polygon points="317.2,350.5 416.3,339.8 404.4,450.7" fill="#005075" fill-opacity="0.74"/>
<polygon points="317.2,350.5 404.4,450.7 319.4,450.0" fill="#005075" fill-opacity="0.93"/>
<polygon points="416.3,339.8 501.5,349.1 508.0,439.5" fill="#005075" fill-opacity="0.64"/>
<polygon points="416.3,339.8 508.0,439.5 404.4,450.7" fill="#005075" fill-opacity="0.79"/>
<polygon points="501.5,349.1 588.1,339.2 570.0,446.1" fill="#005075" fill-opacity="0.78"/>
<polygon points="501.5,349.1 570.0,446.1 508.0,439.5" fill="#005075" fill-opacity="0.96"/>
<polygon points="588.1,339.2 652.0,344.9 662.1,437.7" fill="#005075" fill-opacity="0.97"/>
<polygon points="588.1,339.2 662.1,437.7 570.0,446.1" fill="#005075" fill-opacity="0.82"/>
<polygon points="652.0,344.9 728.6,347.3 662.1,437.7" fill="#005075" fill-opacity="0.86"/>
<polygon points="728.6,347.3 722.0,432.2 662.1,437.7" fill="#005075" fill-opacity="0.79"/>
<polygon points="728.6,347.3 815.7,346.1 722.0,432.2" fill="#005478" fill-opacity="0.7"/>
<polygon points="815.7,346.1 824.4,419.6 722.0,432.2" fill="#005176" fill-opacity="0.57"/>
<polygon points="815.7,346.1 912.7,343.6 896.9,452.8" fill="#037692" fill-opacity="0.81"/>
<polygon points="815.7,346.1 896.9,452.8 824.4,419.6" fill="#02708d" fill-opacity="0.86"/>
<polygon points="-15.2,446.7 79.6,420.0 69.3,527.6" fill="#005075" fill-opacity="0.64"/>
<polygon points="-15.2,446.7 69.3,527.6 7.4,516.2" fill="#005075" fill-opacity="0.66"/>
<polygon points="79.6,420.0 172.4,445.8 69.3,527.6" fill="#005075" fill-opacity="0.92"/>
<polygon points="172.4,445.8 167.6,517.1 69.3,527.6" fill="#005075" fill-opacity="0.99"/>
<polygon points="172.4,445.8 250.8,449.3 246.0,543.1" fill="#005075" fill-opacity="0.96"/>
<polygon points="172.4,445.8 246.0,543.1 167.6,517.1" fill="#005075" fill-opacity="0.81"/>
<polygon points="250.8,449.3 319.4,450.0 246.0,543.1" fill="#005075" fill-opacity="0.75"/>
<polygon points="319.4,450.0 332.4,526.6 246.0,543.1" fill="#005075" fill-opacity="0.85"/>
<polygon points="319.4,450.0 404.4,450.7 332.4,526.6" fill="#005075" fill-opacity="0.64"/>
<polygon points="404.4,450.7 394.1,524.1 332.4,526.6" fill="#005075" fill-opacity="0.7"/>
<polygon points="404.4,450.7 508.0,439.5 394.1,524.1" fill="#005075" fill-opacity="0.64"/>
<polygon points="508.0,439.5 474.5,542.0 394.1,524.1" fill="#005075" fill-opacity="0.91"/>
<polygon points="508.0,439.5 570.0,446.1 573.3,528.7" fill="#005075" fill-opacity="0.63"/>
<polygon points="508.0,439.5 573.3,528.7 474.5,542.0" fill="#005075" fill-opacity="0.86"/>
<polygon points="570.0,446.1 662.1,437.7 573.3,528.7" fill="#005277" fill-opacity="0.61"/>
<polygon points="662.1,437.7 660.8,508.1 573.3,528.7" fill="#005075" fill-opacity="0.6"/>
<polygon points="662.1,437.7 722.0,432.2 747.4,532.3" fill="#015c7e" fill-opacity="0.67"/>
<polygon points="662.1,437.7 747.4,532.3 660.8,508.1" fill="#015f80" fill-opacity="0.63"/>
<polygon points="722.0,432.2 824.4,419.6 803.5,540.2" fill="#00577a" fill-opacity="0.65"/>
<polygon points="722.0,432.2 803.5,540.2 747.4,532.3" fill="#047e97" fill-opacity="0.65"/>
<polygon points="824.4,419.6 896.9,452.8 912.6,543.0" fill="#026f8c" fill-opacity="0.72"/>
<polygon points="824.4,419.6 912.6,543.0 803.5,540.2" fill="#026b89" fill-opacity="0.91"/>
<polygon points="7.4,516.2 69.3,527.6 -14.0,627.8" fill="#005075" fill-opacity="0.97"/>
<polygon points="69.3,527.6 91.4,603.5 -14.0,627.8" fill="#005075" fill-opacity="0.58"/>
<polygon points="69.3,527.6 167.6,517.1 91.4,603.5" fill="#005075" fill-opacity="0.69"/>
<polygon points="167.6,517.1 149.2,619.0 91.4,603.5" fill="#005075" fill-opacity="0.97"/>
<polygon points="167.6,517.1 246.0,543.1 230.4,614.3" fill="#005075" fill-opacity="0.77"/>
<polygon points="167.6,517.1 230.4,614.3 149.2,619.0" fill="#005075" fill-opacity="0.92"/>
<polygon points="246.0,543.1 332.4,526.6 337.8,608.7" fill="#005075" fill-opacity="0.87"/>
<polygon points="246.0,543.1 337.8,608.7 230.4,614.3" fill="#005075" fill-opacity="0.96"/>
<polygon points="332.4,526.6 394.1,524.1 337.8,608.7" fill="#005075" fill-opacity="0.95"/>
<polygon points="394.1,524.1 403.3,609.5 337.8,608.7" fill="#005075" fill-opacity="0.57"/>
<polygon points="394.1,524.1 474.5,542.0 403.3,609.5" fill="#005075" fill-opacity="0.74"/>
<polygon points="474.5,542.0 477.6,596.4 403.3,609.5" fill="#005075" fill-opacity="0.81"/>
<polygon points="474.5,542.0 573.3,528.7 477.6,596.4" fill="#005075" fill-opacity="0.9"/>
<polygon points="573.3,528.7 574.9,624.2 477.6,596.4" fill="#005075" fill-opacity="0.58"/>
<polygon points="573.3,528.7 660.8,508.1 574.9,624.2" fill="#005478" fill-opacity="0.71"/>
<polygon points="660.8,508.1 671.4,598.0 574.9,624.2" fill="#016585" fill-opacity="0.83"/>
<polygon points="660.8,508.1 747.4,532.3 729.6,624.2" fill="#047e98" fill-opacity="0.59"/>
<polygon points="660.8,508.1 729.6,624.2 671.4,598.0" fill="#016484" fill-opacity="0.97"/>
<polygon points="747.4,532.3 803.5,540.2 729.6,624.2" fill="#05889f" fill-opacity="0.83"/>
<polygon points="803.5,540.2 811.0,622.4 729.6,624.2" fill="#0699ac" fill-opacity="0.58"/>
<polygon points="803.5,540.2 912.6,543.0 915.1,625.7" fill="#0693a7" fill-opacity="0.65"/>
<polygon points="803.5,540.2 915.1,625.7 811.0,622.4" fill="#04859d" fill-opacity="0.72"/>
<polygon points="-14.0,627.8 91.4,603.5 4.3,708.4" fill="#005075" fill-opacity="0.63"/>
<polygon points="91.4,603.5 94.1,686.8 4.3,708.4" fill="#005075" fill-opacity="0.58"/>
<polygon points="91.4,603.5 149.2,619.0 158.0,708.6" fill="#005075" fill-opacity="0.64"/>
<polygon points="91.4,603.5 158.0,708.6 94.1,686.8" fill="#005075" fill-opacity="0.86"/>
<polygon points="149.2,619.0 230.4,614.3 158.0,708.6" fill="#005075" fill-opacity="0.9"/>
<polygon points="230.4,614.3 244.7,709.9 158.0,708.6" fill="#005075" fill-opacity="0.82"/>
<polygon points="230.4,614.3 337.8,608.7 343.6,708.2" fill="#005075" fill-opacity="0.73"/>
<polygon points="230.4,614.3 343.6,708.2 244.7,709.9" fill="#005075" fill-opacity="0.8"/>
<polygon points="337.8,608.7 403.3,609.5 343.6,708.2" fill="#005075" fill-opacity="0.89"/>
<polygon points="403.3,609.5 412.2,708.2 343.6,708.2" fill="#005075" fill-opacity="0.73"/>
<polygon points="403.3,609.5 477.6,596.4 412.2,708.2" fill="#005075" fill-opacity="0.79"/>
<polygon points="477.6,596.4 505.6,685.2 412.2,708.2" fill="#005075" fill-opacity="0.84"/>
<polygon points="477.6,596.4 574.9,624.2 505.6,685.2" fill="#026f8c" fill-opacity="0.67"/>
<polygon points="574.9,624.2 557.2,710.7 505.6,685.2" fill="#015b7d" fill-opacity="0.99"/>
<polygon points="574.9,624.2 671.4,598.0 557.2,710.7" fill="#016181" fill-opacity="0.89"/>
<polygon points="671.4,598.0 666.7,705.8 557.2,710.7" fill="#058da3" fill-opacity="0.73"/>
<polygon points="671.4,598.0 729.6,624.2 666.7,705.8" fill="#04879e" fill-opacity="0.74"/>
<polygon points="729.6,624.2 734.9,691.4 666.7,705.8" fill="#04859d" fill-opacity="0.79"/>
<polygon points="729.6,624.2 811.0,622.4 834.8,707.5" fill="#0696aa" fill-opacity="0.76"/>
<polygon points="729.6,624.2 834.8,707.5 734.9,691.4" fill="#0695a9" fill-opacity="0.59"/>
<polygon points="811.0,622.4 915.1,625.7 916.7,705.9" fill="#09bac5" fill-opacity="0.7"/>
<polygon points="811.0,622.4 916.7,705.9 834.8,707.5" fill="#08acba" fill-opacity="0.97"/>
  </g>
</svg>