<svg xmlns="http://www.w3.org/2000/svg" viewBox="0 0 900 700" preserveAspectRatio="xMidYMid slice">
  <defs>
    <linearGradient id="bg22" x1="0" y1="0" x2="1" y2="1">
      <stop offset="0" stop-color="#042442"/>
      <stop offset="1" stop-color="#06385D"/>
    </linearGradient>
  </defs>
  <rect width="900" height="700" fill="url(#bg22)"/>
  <g>
<polygon points="15.7,-13.2 65.4,18.3 15.1,97.6" fill="#043f64" fill-opacity="0.65"/>
<polygon points="65.4,18.3 97.7,89.9 15.1,97.6" fill="#034065" fill-opacity="0.61"/>
<polygon points="65.4,18.3 152.8,-13.9 170.5,91.6" fill="#024469" fill-opacity="0.57"/>
<polygon points="65.4,18.3 170.5,91.6 97.7,89.9" fill="#024469" fill-opacity="0.69"/>
<polygon points="152.8,-13.9 250.7,-5.7 237.2,104.3" fill="#02476c" fill-opacity="0.61"/>
<polygon points="152.8,-13.9 237.2,104.3 170.5,91.6" fill="#02476c" fill-opacity="0.87"/>
<polygon points="250.7,-5.7 340.7,-9.9 320.8,97.8" fill="#02466b" fill-opacity="0.61"/>
<polygon points="250.7,-5.7 320.8,97.8 237.2,104.3" fill="#01486d" fill-opacity="0.84"/>
<polygon points="340.7,-9.9 424.9,-6.6 424.7,93.0" fill="#014a6f" fill-opacity="0.55"/>
<polygon points="340.7,-9.9 424.7,93.0 320.8,97.8" fill="#004c71" fill-opacity="0.91"/>
<polygon points="424.9,-6.6 494.4,15.9 424.7,93.0" fill="#004c71" fill-opacity="0.97"/>
<polygon points="494.4,15.9 478.6,99.5 424.7,93.0" fill="#00587b" fill-opacity="0.62"/>
<polygon points="494.4,15.9 579.1,15.6 578.5,75.9" fill="#005075" fill-opacity="0.72"/>
<polygon points="494.4,15.9 578.5,75.9 478.6,99.5" fill="#015f80" fill-opacity="0.63"/>
<polygon points="579.1,15.6 661.7,-16.6 639.1,88.7" fill="#015c7e" fill-opacity="0.78"/>
<polygon points="579.1,15.6 639.1,88.7 578.5,75.9" fill="#016584" fill-opacity="0.75"/>
<polygon points="661.7,-16.6 749.5,3.3 720.3,103.1" fill="#037a94" fill-opacity="0.86"/>
<polygon points="661.7,-16.6 720.3,103.1 639.1,88.7" fill="#047f98" fill-opacity="0.65"/>
<polygon points="749.5,3.3 811.7,-11.4 818.4,88.1" fill="#047e97" fill-opacity="0.94"/>
<polygon points="749.5,3.3 818.4,88.1 720.3,103.1" fill="#037c96" fill-opacity="0.61"/>
<polygon points="811.7,-11.4 912.0,3.0 896.9,93.4" fill="#05899f" fill-opacity="0.92"/>
<polygon points="811.7,-11.4 896.9,93.4 818.4,88.1" fill="#069dae" fill-opacity="0.97"/>
<polygon points="15.1,97.6 97.7,89.9 77.5,178.0" fill="#02456a" fill-opacity="0.7"/>
<polygon points="15.1,97.6 77.5,178.0 14.3,167.9" fill="#024469" fill-opacity="0.88"/>
<polygon points="97.7,89.9 170.5,91.6 156.7,178.5" fill="#02456a" fill-opacity="0.91"/>
<polygon points="97.7,89.9 156.7,178.5 77.5,178.0" fill="#02466b" fill-opacity="0.57"/>
<polygon points="170.5,91.6 237.2,104.3 246.9,172.6" fill="#01496e" fill-opacity="0.8"/>
<polygon points="170.5,91.6 246.9,172.6 156.7,178.5" fill="#02476c" fill-opacity="0.96"/>
<polygon points="237.2,104.3 320.8,97.8 333.2,176.0" fill="#00577a" fill-opacity="0.78"/>
<polygon points="237.2,104.3 333.2,176.0 246.9,172.6" fill="#00587b" fill-opacity="0.86"/>
<polygon points="320.8,97.8 424.7,93.0 394.9,193.2" fill="#00587b" fill-opacity="0.62"/>
<polygon points="320.8,97.8 394.9,193.2 333.2,176.0" fill="#026988" fill-opacity="0.96"/>
<polygon points="424.7,93.0 478.6,99.5 394.9,193.2" fill="#015e7f" fill-opacity="0.72"/>
<polygon points="478.6,99.5 486.0,172.5 394.9,193.2" fill="#00597c" fill-opacity="0.83"/>
<polygon points="478.6,99.5 578.5,75.9 569.4,190.8" fill="#04819a" fill-opacity="0.72"/>
<polygon points="478.6,99.5 569.4,190.8 486.0,172.5" fill="#026c8a" fill-opacity="0.83"/>
<polygon points="578.5,75.9 639.1,88.7 569.4,190.8" fill="#05889f" fill-opacity="0.63"/>
<polygon points="639.1,88.7 670.1,175.4 569.4,190.8" fill="#048199" fill-opacity="0.84"/>
<polygon points="639.1,88.7 720.3,103.1 670.1,175.4" fill="#037994" fill-opacity="0.92"/>
<polygon points="720.3,103.1 732.9,160.2 670.1,175.4" fill="#0590a5" fill-opacity="0.92"/>
<polygon points="720.3,103.1 818.4,88.1 732.9,160.2" fill="#0698ab" fill-opacity="0.62"/>
<polygon points="818.4,88.1 831.8,162.9 732.9,160.2" fill="#0592a6" fill-opacity="0.6"/>
<polygon points="818.4,88.1 896.9,93.4 901.6,169.5" fill="#07a6b5" fill-opacity="0.89"/>
<polygon points="818.4,88.1 901.6,169.5 831.8,162.9" fill="#09bdc6" fill-opacity="0.83"/>
<polygon points="14.3,167.9 77.5,178.0 71.2,245.5" fill="#02466b" fill-opacity="0.85"/>
<polygon points="14.3,167.9 71.2,245.5 -5.9,257.3" fill="#014a6f" fill-opacity="0.72"/>
<polygon points="77.5,178.0 156.7,178.5 71.2,245.5" fill="#02466b" fill-opacity="0.76"/>
<polygon points="156.7,178.5 164.9,273.4 71.2,245.5" fill="#014a6f" fill-opacity="0.63"/>
<polygon points="156.7,178.5 246.9,172.6 164.9,273.4" fill="#004c71" fill-opacity="0.58"/>
<polygon points="246.9,172.6 250.5,251.5 164.9,273.4" fill="#016182" fill-opacity="0.68"/>
<polygon points="246.9,172.6 333.2,176.0 333.9,246.0" fill="#026987" fill-opacity="0.88"/>
<polygon points="246.9,172.6 333.9,246.0 250.5,251.5" fill="#004d72" fill-opacity="0.95"/>
<polygon points="333.2,176.0 394.9,193.2 406.0,274.6" fill="#037792" fill-opacity="0.79"/>
<polygon points="333.2,176.0 406.0,274.6 333.9,246.0" fill="#037a95" fill-opacity="0.77"/>
<polygon points="394.9,193.2 486.0,172.5 505.4,261.1" fill="#016685" fill-opacity="0.62"/>
<polygon points="394.9,193.2 505.4,261.1 406.0,274.6" fill="#037490" fill-opacity="0.94"/>
<polygon points="486.0,172.5 569.4,190.8 584.6,262.4" fill="#0696a9" fill-opacity="0.6"/>
<polygon points="486.0,172.5 584.6,262.4 505.4,261.1" fill="#04849c" fill-opacity="0.6"/>
<polygon points="569.4,190.8 670.1,175.4 655.4,265.6" fill="#058ea3" fill-opacity="0.71"/>
<polygon points="569.4,190.8 655.4,265.6 584.6,262.4" fill="#0697aa" fill-opacity="0.62"/>
<polygon points="670.1,175.4 732.9,160.2 753.2,271.5" fill="#08adbb" fill-opacity="0.66"/>
<polygon points="670.1,175.4 753.2,271.5 655.4,265.6" fill="#09bac5" fill-opacity="0.77"/>
<polygon points="732.9,160.2 831.8,162.9 753.2,271.5" fill="#08adbb" fill-opacity="0.89"/>
<polygon points="831.8,162.9 817.3,270.9 753.2,271.5" fill="#09b8c3" fill-opacity="0.67"/>
<polygon points="831.8,162.9 901.6,169.5 817.3,270.9" fill="#08b0bd" fill-opacity="0.68"/>
<polygon points="901.6,169.5 904.9,257.1 817.3,270.9" fill="#0bc0c9" fill-opacity="0.88"/>
<polygon points="-5.9,257.3 71.2,245.5 85.5,366.3" fill="#014b70" fill-opacity="0.87"/>
<polygon points="-5.9,257.3 85.5,366.3 9.8,361.8" fill="#014b70" fill-opacity="0.58"/>
<polygon points="71.2,245.5 164.9,273.4 147.1,350.0" fill="#004d72" fill-opacity="0.73"/>
<polygon points="71.2,245.5 147.1,350.0 85.5,366.3" fill="#016181" fill-opacity="0.64"/>
<polygon points="164.9,273.4 250.5,251.5 147.1,350.0" fill="#004f74" fill-opacity="0.62"/>
<polygon points="250.5,251.5 250.1,344.1 147.1,350.0" fill="#005a7d" fill-opacity="0.98"/>
<polygon points="250.5,251.5 333.9,246.0 250.1,344.1" fill="#037994" fill-opacity="0.65"/>
<polygon points="333.9,246.0 316.0,357.1 250.1,344.1" fill="#016282" fill-opacity="0.77"/>
<polygon points="333.9,246.0 406.0,274.6 406.8,341.5" fill="#048099" fill-opacity="0.6"/>
<polygon points="333.9,246.0 406.8,341.5 316.0,357.1" fill="#037a95" fill-opacity="0.9"/>
<polygon points="406.0,274.6 505.4,261.1 475.2,367.2" fill="#037b95" fill-opacity="0.87"/>
<polygon points="406.0,274.6 475.2,367.2 406.8,341.5" fill="#0697aa" fill-opacity="0.9"/>
<polygon points="505.4,261.1 584.6,262.4 567.7,336.0" fill="#069cae" fill-opacity="0.76"/>
<polygon points="505.4,261.1 567.7,336.0 475.2,367.2" fill="#079fb0" fill-opacity="0.61"/>
<polygon points="584.6,262.4 655.4,265.6 567.7,336.0" fill="#07a6b6" fill-opacity="0.66"/>
<polygon points="655.4,265.6 644.8,341.0 567.7,336.0" fill="#07a9b7" fill-opacity="0.57"/>
<polygon points="655.4,265.6 753.2,271.5 644.8,341.0" fill="#07a9b7" fill-opacity="0.57"/>
<polygon points="753.2,271.5 748.9,338.3 644.8,341.0" fill="#0ec2ca" fill-opacity="0.66"/>
<polygon points="753.2,271.5 817.3,270.9 810.5,335.2" fill="#17c7ce" fill-opacity="0.78"/>
<polygon points="753.2,271.5 810.5,335.2 748.9,338.3" fill="#0bc0c9" fill-opacity="0.61"/>
<polygon points="817.3,270.9 904.9,257.1 810.5,335.2" fill="#21cdd2" fill-opacity="0.85"/>
<polygon points="904.9,257.1 899.0,339.3 810.5,335.2" fill="#30d5d8" fill-opacity="0.78"/>
<polygon points="9.8,361.8 85.5,366.3 96.4,449.8" fill="#015e7f" fill-opacity="0.56"/>
<polygon points="9.8,361.8 96.4,449.8 -5.4,446.1" fill="#005377" fill-opacity="0.91"/>
<polygon points="85.5,366.3 147.1,350.0 96.4,449.8" fill="#015d7f" fill-opacity="0.6"/>
<polygon points="147.1,350.0 147.8,433.0 96.4,449.8" fill="#026887" fill-opacity="0.93"/>
<polygon points="147.1,350.0 250.1,344.1 147.8,433.0" fill="#015c7e" fill-opacity="0.6"/>
<polygon points="250.1,344.1 257.4,420.3 147.8,433.0" fill="#037993" fill-opacity="0.94"/>
<polygon points="250.1,344.1 316.0,357.1 257.4,420.3" fill="#037994" fill-opacity="0.66"/>
<polygon points="316.0,357.1 317.1,437.1 257.4,420.3" fill="#0694a8" fill-opacity="0.59"/>
<polygon points="316.0,357.1 406.8,341.5 405.1,446.7" fill="#058aa0" fill-opacity="0.82"/>
<polygon points="316.0,357.1 405.1,446.7 317.1,437.1" fill="#07a2b3" fill-opacity="0.94"/>
<polygon points="406.8,341.5 475.2,367.2 498.4,436.2" fill="#069bad" fill-opacity="0.67"/>
<polygon points="406.8,341.5 498.4,436.2 405.1,446.7" fill="#079eb0" fill-opacity="0.6"/>
<polygon points="475.2,367.2 567.7,336.0 564.1,427.6" fill="#07a6b5" fill-opacity="0.89"/>
<polygon points="475.2,367.2 564.1,427.6 498.4,436.2" fill="#10c3cb" fill-opacity="0.67"/>
<polygon points="567.7,336.0 644.8,341.0 646.5,421.5" fill="#08abb9" fill-opacity="0.88"/>
<polygon points="567.7,336.0 646.5,421.5 564.1,427.6" fill="#1bc9d0" fill-opacity="0.91"/>
<polygon points="644.8,341.0 748.9,338.3 742.1,424.9" fill="#14c5cd" fill-opacity="0.88"/>
<polygon points="644.8,341.0 742.1,424.9 646.5,421.5" fill="#23cdd3" fill-opacity="0.88"/>
<polygon points="748.9,338.3 810.5,335.2 831.6,442.9" fill="#29d1d5" fill-opacity="1.0"/>
<polygon points="748.9,338.3 831.6,442.9 742.1,424.9" fill="#38d9db" fill-opacity="0.66"/>
<polygon points="810.5,335.2 899.0,339.3 831.6,442.9" fill="#30d5d8" fill-opacity="0.59"/>
<polygon points="899.0,339.3 884.8,437.5 831.6,442.9" fill="#3bdbdc" fill-opacity="0.92"/>
<polygon points="-5.4,446.1 96.4,449.8 81.4,507.7" fill="#026b89" fill-opacity="0.79"/>
<polygon points="-5.4,446.1 81.4,507.7 3.6,508.2" fill="#037591" fill-opacity="0.59"/>
<polygon points="96.4,449.8 147.8,433.0 172.8,506.8" fill="#037490" fill-opacity="0.77"/>
<polygon points="96.4,449.8 172.8,506.8 81.4,507.7" fill="#037b95" fill-opacity="0.86"/>
<polygon points="147.8,433.0 257.4,420.3 172.8,506.8" fill="#0593a7" fill-opacity="0.91"/>
<polygon points="257.4,420.3 250.0,542.8 172.8,506.8" fill="#0592a6" fill-opacity="0.86"/>
<polygon points="257.4,420.3 317.1,437.1 250.0,542.8" fill="#0695a9" fill-opacity="0.99"/>
<polygon points="317.1,437.1 339.2,515.2 250.0,542.8" fill="#07a4b4" fill-opacity="0.82"/>
<polygon points="317.1,437.1 405.1,446.7 410.3,511.8" fill="#07a2b3" fill-opacity="0.74"/>
<polygon points="317.1,437.1 410.3,511.8 339.2,515.2" fill="#08b2bf" fill-opacity="0.72"/>
<polygon points="405.1,446.7 498.4,436.2 410.3,511.8" fill="#0cc1c9" fill-opacity="0.88"/>
<polygon points="498.4,436.2 485.5,538.4 410.3,511.8" fill="#1bc9cf" fill-opacity="0.87"/>
<polygon points="498.4,436.2 564.1,427.6 485.5,538.4" fill="#0ec2ca" fill-opacity="0.72"/>
<polygon points="564.1,427.6 583.6,507.0 485.5,538.4" fill="#09b8c3" fill-opacity="0.85"/>
<polygon points="564.1,427.6 646.5,421.5 650.4,530.2" fill="#27d0d4" fill-opacity="0.88"/>
<polygon points="564.1,427.6 650.4,530.2 583.6,507.0" fill="#2bd2d6" fill-opacity="0.57"/>
<polygon points="646.5,421.5 742.1,424.9 725.2,536.1" fill="#35d7da" fill-opacity="0.68"/>
<polygon points="646.5,421.5 725.2,536.1 650.4,530.2" fill="#2cd2d6" fill-opacity="0.94"/>
<polygon points="742.1,424.9 831.6,442.9 725.2,536.1" fill="#37d8db" fill-opacity="0.76"/>
<polygon points="831.6,442.9 831.7,526.9 725.2,536.1" fill="#36d8da" fill-opacity="0.63"/>
<polygon points="831.6,442.9 884.8,437.5 831.7,526.9" fill="#3fddde" fill-opacity="0.65"/>
<polygon points="884.8,437.5 895.3,537.8 831.7,526.9" fill="#58eae8" fill-opacity="0.57"/>
<polygon points="3.6,508.2 81.4,507.7 74.2,600.0" fill="#026b89" fill-opacity="0.59"/>
<polygon points="3.6,508.2 74.2,600.0 0.4,601.0" fill="#04879e" fill-opacity="0.99"/>
<polygon points="81.4,507.7 172.8,506.8 175.3,612.9" fill="#0697aa" fill-opacity="0.78"/>
<polygon points="81.4,507.7 175.3,612.9 74.2,600.0" fill="#048099" fill-opacity="0.9"/>
<polygon points="172.8,506.8 250.0,542.8 175.3,612.9" fill="#058ca2" fill-opacity="0.58"/>
<polygon points="250.0,542.8 252.2,624.2 175.3,612.9" fill="#08a9b8" fill-opacity="0.94"/>
<polygon points="250.0,542.8 339.2,515.2 343.6,601.1" fill="#07a7b6" fill-opacity="0.94"/>
<polygon points="250.0,542.8 343.6,601.1 252.2,624.2" fill="#08acba" fill-opacity="0.98"/>
<polygon points="339.2,515.2 410.3,511.8 405.9,626.3" fill="#10c3cb" fill-opacity="0.94"/>
<polygon points="339.2,515.2 405.9,626.3 343.6,601.1" fill="#1dcad0" fill-opacity="0.92"/>
<polygon points="410.3,511.8 485.5,538.4 405.9,626.3" fill="#09bbc5" fill-opacity="0.78"/>
<polygon points="485.5,538.4 499.9,608.3 405.9,626.3" fill="#21ccd2" fill-opacity="0.88"/>
<polygon points="485.5,538.4 583.6,507.0 499.9,608.3" fill="#16c6cd" fill-opacity="0.81"/>
<polygon points="583.6,507.0 578.1,601.3 499.9,608.3" fill="#23cdd3" fill-opacity="0.63"/>
<polygon points="583.6,507.0 650.4,530.2 578.1,601.3" fill="#2dd3d7" fill-opacity="0.91"/>
<polygon points="650.4,530.2 642.9,596.0 578.1,601.3" fill="#3cdbdd" fill-opacity="0.71"/>
<polygon points="650.4,530.2 725.2,536.1 732.2,602.8" fill="#39dadc" fill-opacity="0.71"/>
<polygon points="650.4,530.2 732.2,602.8 642.9,596.0" fill="#40ddde" fill-opacity="0.67"/>
<polygon points="725.2,536.1 831.7,526.9 732.2,602.8" fill="#48e2e2" fill-opacity="0.65"/>
<polygon points="831.7,526.9 818.8,629.8 732.2,602.8" fill="#55e9e7" fill-opacity="0.85"/>
<polygon points="831.7,526.9 895.3,537.8 818.8,629.8" fill="#68f3ee" fill-opacity="0.83"/>
<polygon points="895.3,537.8 888.1,614.6 818.8,629.8" fill="#7dfff7" fill-opacity="0.85"/>
<polygon points="0.4,601.0 74.2,600.0 82.8,709.8" fill="#04849c" fill-opacity="0.73"/>
<polygon points="0.4,601.0 82.8,709.8 12.5,703.6" fill="#0698ab" fill-opacity="0.89"/>
<polygon points="74.2,600.0 175.3,612.9 82.8,709.8" fill="#07a0b1" fill-opacity="0.59"/>
<polygon points="175.3,612.9 147.2,716.5 82.8,709.8" fill="#08acba" fill-opacity="0.84"/>
<polygon points="175.3,612.9 252.2,624.2 147.2,716.5" fill="#09bcc6" fill-opacity="0.75"/>
<polygon points="252.2,624.2 251.9,711.3 147.2,716.5" fill="#08b1be" fill-opacity="0.57"/>
<polygon points="252.2,624.2 343.6,601.1 251.9,711.3" fill="#0ac0c9" fill-opacity="0.89"/>
<polygon points="343.6,601.1 338.4,685.2 251.9,711.3" fill="#09bbc5" fill-opacity="0.79"/>
<polygon points="343.6,601.1 405.9,626.3 338.4,685.2" fill="#1bc9d0" fill-opacity="0.8"/>
<polygon points="405.9,626.3 394.2,688.2 338.4,685.2" fill="#17c7ce" fill-opacity="0.59"/>
<polygon points="405.9,626.3 499.9,608.3 491.1,716.1" fill="#1ac9cf" fill-opacity="0.69"/>
<polygon points="405.9,626.3 491.1,716.1 394.2,688.2" fill="#3eddde" fill-opacity="0.74"/>
<polygon points="499.9,608.3 578.1,601.3 491.1,716.1" fill="#4be4e3" fill-opacity="0.92"/>
<polygon points="578.1,601.3 586.8,696.8 491.1,716.1" fill="#47e1e1" fill-opacity="0.75"/>
<polygon points="578.1,601.3 642.9,596.0 658.8,708.8" fill="#4ce4e3" fill-opacity="0.93"/>
<polygon points="578.1,601.3 658.8,708.8 586.8,696.8" fill="#47e1e1" fill-opacity="0.62"/>
<polygon points="642.9,596.0 732.2,602.8 658.8,708.8" fill="#64f1ed" fill-opacity="0.83"/>
<polygon points="732.2,602.8 730.6,717.3 658.8,708.8" fill="#5eeeea" fill-opacity="0.73"/>
<polygon points="732.2,602.8 818.8,629.8 833.4,708.3" fill="#5cedea" fill-opacity="0.81"/>
<polygon points="732.2,602.8 833.4,708.3 730.6,717.3" fill="#7afdf5" fill-opacity="0.77"/>
<polygon points="818.8,629.8 888.1,614.6 833.4,708.3" fill="#7dfff7" fill-opacity="0.88"/>
<polygon points="888.1,614.6 913.8,711.1 833.4,708.3" fill="#7dfff7" fill-opacity="0.84"/>
  </g>
</svg>