<svg xmlns="http://www.w3.org/2000/svg" viewBox="0 0 900 700" preserveAspectRatio="xMidYMid slice">
  <defs>
    <linearGradient id="bg66" x1="0" y1="0" x2="1" y2="1">
      <stop offset="0" stop-color="#042442"/>
      <stop offset="1" stop-color="#06385D"/>
    </linearGradient>
  </defs>
  <rect width="900" height="700" fill="url(#bg66)"/>
  <g>
<polygon points="-14.7,-2.4 73.1,-2.0 98.2,76.7" fill="#032745" fill-opacity="0.62"/>
<polygon points="-14.7,-2.4 98.2,76.7 7.2,94.7" fill="#032c4c" fill-opacity="0.63"/>
<polygon points="73.1,-2.0 155.3,13.3 98.2,76.7" fill="#032a49" fill-opacity="0.69"/>
<polygon points="155.3,13.3 157.4,86.9 98.2,76.7" fill="#023050" fill-opacity="0.74"/>
<polygon points="155.3,13.3 247.5,9.0 157.4,86.9" fill="#032d4c" fill-opacity="0.85"/>
<polygon points="247.5,9.0 238.8,79.8 157.4,86.9" fill="#023657" fill-opacity="0.55"/>
<polygon points="247.5,9.0 341.9,-0.2 238.8,79.8" fill="#023454" fill-opacity="0.68"/>
<polygon points="341.9,-0.2 316.9,103.0 238.8,79.8" fill="#02395b" fill-opacity="0.77"/>
<polygon points="341.9,-0.2 408.0,-13.7 316.9,103.0" fill="#013a5c" fill-opacity="0.76"/>
<polygon points="408.0,-13.7 425.3,101.3 316.9,103.0" fill="#02395b" fill-opacity="0.65"/>
<polygon points="408.0,-13.7 500.7,-15.8 425.3,101.3" fill="#023859" fill-opacity="0.92"/>
<polygon points="500.7,-15.8 501.0,84.1 425.3,101.3" fill="#014164" fill-opacity="0.71"/>
<polygon points="500.7,-15.8 568.0,-12.2 501.0,84.1" fill="#014164" fill-opacity="0.98"/>
<polygon points="568.0,-12.2 566.2,84.0 501.0,84.1" fill="#014468" fill-opacity="0.63"/>
<polygon points="568.0,-12.2 662.4,-1.5 638.0,73.5" fill="#014163" fill-opacity="0.72"/>
<polygon points="568.0,-12.2 638.0,73.5 566.2,84.0" fill="#00496d" fill-opacity="0.81"/>
<polygon points="662.4,-1.5 736.5,1.0 638.0,73.5" fill="#00496d" fill-opacity="0.55"/>
<polygon points="736.5,1.0 735.5,84.4 638.0,73.5" fill="#004d71" fill-opacity="0.68"/>
<polygon points="736.5,1.0 830.0,17.6 735.5,84.4" fill="#00496d" fill-opacity="0.69"/>
<polygon points="830.0,17.6 823.5,89.7 735.5,84.4" fill="#004f74" fill-opacity="0.56"/>
<polygon points="830.0,17.6 895.5,14.0 823.5,89.7" fill="#004e73" fill-opacity="0.82"/>
<polygon points="895.5,14.0 886.2,100.3 823.5,89.7" fill="#0c6181" fill-opacity="0.85"/>
<polygon points="7.2,94.7 98.2,76.7 -2.5,174.2" fill="#032e4d" fill-opacity="0.99"/>
<polygon points="98.2,76.7 77.4,170.1 -2.5,174.2" fill="#022f4f" fill-opacity="0.57"/>
<polygon points="98.2,76.7 157.4,86.9 178.1,192.1" fill="#023151" fill-opacity="0.66"/>
<polygon points="98.2,76.7 178.1,192.1 77.4,170.1" fill="#02395a" fill-opacity="0.57"/>
<polygon points="157.4,86.9 238.8,79.8 234.6,190.4" fill="#013c5e" fill-opacity="0.98"/>
<polygon points="157.4,86.9 234.6,190.4 178.1,192.1" fill="#013b5c" fill-opacity="0.72"/>
<polygon points="238.8,79.8 316.9,103.0 337.9,186.9" fill="#014063" fill-opacity="0.9"/>
<polygon points="238.8,79.8 337.9,186.9 234.6,190.4" fill="#013b5d" fill-opacity="0.79"/>
<polygon points="316.9,103.0 425.3,101.3 337.9,186.9" fill="#013f62" fill-opacity="0.6"/>
<polygon points="425.3,101.3 401.6,189.6 337.9,186.9" fill="#00466a" fill-opacity="0.58"/>
<polygon points="425.3,101.3 501.0,84.1 401.6,189.6" fill="#013e61" fill-opacity="0.88"/>
<polygon points="501.0,84.1 493.7,173.5 401.6,189.6" fill="#00476b" fill-opacity="0.86"/>
<polygon points="501.0,84.1 566.2,84.0 556.7,175.6" fill="#014265" fill-opacity="0.72"/>
<polygon points="501.0,84.1 556.7,175.6 493.7,173.5" fill="#004c70" fill-opacity="0.67"/>
<polygon points="566.2,84.0 638.0,73.5 643.4,167.2" fill="#00476b" fill-opacity="0.67"/>
<polygon points="566.2,84.0 643.4,167.2 556.7,175.6" fill="#004f74" fill-opacity="0.65"/>
<polygon points="638.0,73.5 735.5,84.4 748.9,169.2" fill="#004c70" fill-opacity="0.77"/>
<polygon points="638.0,73.5 748.9,169.2 643.4,167.2" fill="#004f74" fill-opacity="0.72"/>
<polygon points="735.5,84.4 823.5,89.7 829.0,170.1" fill="#004f74" fill-opacity="0.77"/>
<polygon points="735.5,84.4 829.0,170.1 748.9,169.2" fill="#004f74" fill-opacity="0.96"/>
<polygon points="823.5,89.7 886.2,100.3 886.8,171.2" fill="#1b7691" fill-opacity="0.79"/>
<polygon points="823.5,89.7 886.8,171.2 829.0,170.1" fill="#1b7792" fill-opacity="0.77"/>
<polygon points="-2.5,174.2 77.4,170.1 -11.4,249.8" fill="#023758" fill-opacity="0.79"/>
<polygon points="77.4,170.1 87.8,269.7 -11.4,249.8" fill="#02395b" fill-opacity="0.61"/>
<polygon points="77.4,170.1 178.1,192.1 87.8,269.7" fill="#023758" fill-opacity="0.8"/>
<polygon points="178.1,192.1 152.7,270.9 87.8,269.7" fill="#013e61" fill-opacity="0.58"/>
<polygon points="178.1,192.1 234.6,190.4 152.7,270.9" fill="#013e60" fill-opacity="0.97"/>
<polygon points="234.6,190.4 246.7,247.8 152.7,270.9" fill="#013c5e" fill-opacity="0.76"/>
<polygon points="234.6,190.4 337.9,186.9 313.5,269.9" fill="#014265" fill-opacity="0.93"/>
<polygon points="234.6,190.4 313.5,269.9 246.7,247.8" fill="#014062" fill-opacity="0.75"/>
<polygon points="337.9,186.9 401.6,189.6 423.3,274.4" fill="#00496c" fill-opacity="0.9"/>
<polygon points="337.9,186.9 423.3,274.4 313.5,269.9" fill="#014265" fill-opacity="0.79"/>
<polygon points="401.6,189.6 493.7,173.5 494.3,246.6" fill="#004a6e" fill-opacity="0.57"/>
<polygon points="401.6,189.6 494.3,246.6 423.3,274.4" fill="#00486b" fill-opacity="0.75"/>
<polygon points="493.7,173.5 556.7,175.6 494.3,246.6" fill="#004b70" fill-opacity="0.62"/>
<polygon points="556.7,175.6 581.0,246.4 494.3,246.6" fill="#004f74" fill-opacity="0.72"/>
<polygon points="556.7,175.6 643.4,167.2 664.1,247.4" fill="#095d7e" fill-opacity="0.95"/>
<polygon points="556.7,175.6 664.1,247.4 581.0,246.4" fill="#095d7e" fill-opacity="0.6"/>
<polygon points="643.4,167.2 748.9,169.2 664.1,247.4" fill="#075a7c" fill-opacity="0.64"/>
<polygon points="748.9,169.2 752.6,261.8 664.1,247.4" fill="#197490" fill-opacity="0.69"/>
<polygon points="748.9,169.2 829.0,170.1 808.4,247.8" fill="#238199" fill-opacity="0.63"/>
<polygon points="748.9,169.2 808.4,247.8 752.6,261.8" fill="#116786" fill-opacity="0.9"/>
<polygon points="829.0,170.1 886.8,171.2 891.9,270.0" fill="#2f91a5" fill-opacity="0.98"/>
<polygon points="829.0,170.1 891.9,270.0 808.4,247.8" fill="#19748f" fill-opacity="0.71"/>
<polygon points="-11.4,249.8 87.8,269.7 -7.9,334.5" fill="#023859" fill-opacity="0.67"/>
<polygon points="87.8,269.7 90.5,337.8 -7.9,334.5" fill="#013f61" fill-opacity="0.7"/>
<polygon points="87.8,269.7 152.7,270.9 90.5,337.8" fill="#013b5c" fill-opacity="0.78"/>
<polygon points="152.7,270.9 152.2,339.4 90.5,337.8" fill="#014264" fill-opacity="0.84"/>
<polygon points="152.7,270.9 246.7,247.8 152.2,339.4" fill="#013d60" fill-opacity="0.71"/>
<polygon points="246.7,247.8 233.2,340.6 152.2,339.4" fill="#00476b" fill-opacity="0.91"/>
<polygon points="246.7,247.8 313.5,269.9 312.5,332.1" fill="#014367" fill-opacity="0.93"/>
<polygon points="246.7,247.8 312.5,332.1 233.2,340.6" fill="#014063" fill-opacity="0.85"/>
<polygon points="313.5,269.9 423.3,274.4 312.5,332.1" fill="#004c71" fill-opacity="0.98"/>
<polygon points="423.3,274.4 396.0,346.0 312.5,332.1" fill="#004f73" fill-opacity="0.66"/>
<polygon points="423.3,274.4 494.3,246.6 505.4,362.4" fill="#0b6081" fill-opacity="0.84"/>
<polygon points="423.3,274.4 505.4,362.4 396.0,346.0" fill="#05577a" fill-opacity="0.78"/>
<polygon points="494.3,246.6 581.0,246.4 505.4,362.4" fill="#0d6282" fill-opacity="0.89"/>
<polygon points="581.0,246.4 574.5,337.6 505.4,362.4" fill="#18728e" fill-opacity="0.76"/>
<polygon points="581.0,246.4 664.1,247.4 574.5,337.6" fill="#075b7d" fill-opacity="0.72"/>
<polygon points="664.1,247.4 669.3,341.5 574.5,337.6" fill="#116786" fill-opacity="0.59"/>
<polygon points="664.1,247.4 752.6,261.8 737.1,352.2" fill="#136b89" fill-opacity="0.74"/>
<polygon points="664.1,247.4 737.1,352.2 669.3,341.5" fill="#1d7993" fill-opacity="0.88"/>
<polygon points="752.6,261.8 808.4,247.8 815.3,340.0" fill="#228098" fill-opacity="0.65"/>
<polygon points="752.6,261.8 815.3,340.0 737.1,352.2" fill="#3398aa" fill-opacity="0.56"/>
<polygon points="808.4,247.8 891.9,270.0 913.7,335.6" fill="#3ca4b3" fill-opacity="0.65"/>
<polygon points="808.4,247.8 913.7,335.6 815.3,340.0" fill="#349aac" fill-opacity="0.97"/>
<polygon points="-7.9,334.5 90.5,337.8 -5.5,444.5" fill="#013b5d" fill-opacity="0.62"/>
<polygon points="90.5,337.8 74.3,419.9 -5.5,444.5" fill="#004568" fill-opacity="0.77"/>
<polygon points="90.5,337.8 152.2,339.4 149.3,445.8" fill="#014164" fill-opacity="0.67"/>
<polygon points="90.5,337.8 149.3,445.8 74.3,419.9" fill="#014467" fill-opacity="0.57"/>
<polygon points="152.2,339.4 233.2,340.6 246.2,432.5" fill="#004c70" fill-opacity="0.92"/>
<polygon points="152.2,339.4 246.2,432.5 149.3,445.8" fill="#004568" fill-opacity="0.79"/>
<polygon points="233.2,340.6 312.5,332.1 339.0,442.9" fill="#004e73" fill-opacity="0.88"/>
<polygon points="233.2,340.6 339.0,442.9 246.2,432.5" fill="#004e73" fill-opacity="0.85"/>
<polygon points="312.5,332.1 396.0,346.0 398.7,426.7" fill="#085c7e" fill-opacity="0.87"/>
<polygon points="312.5,332.1 398.7,426.7 339.0,442.9" fill="#035478" fill-opacity="0.8"/>
<polygon points="396.0,346.0 505.4,362.4 398.7,426.7" fill="#004e73" fill-opacity="0.81"/>
<polygon points="505.4,362.4 504.4,434.1 398.7,426.7" fill="#116786" fill-opacity="0.63"/>
<polygon points="505.4,362.4 574.5,337.6 574.5,432.4" fill="#19748f" fill-opacity="0.55"/>
<polygon points="505.4,362.4 574.5,432.4 504.4,434.1" fill="#17708d" fill-opacity="0.99"/>
<polygon points="574.5,337.6 669.3,341.5 574.5,432.4" fill="#1e7a94" fill-opacity="0.7"/>
<polygon points="669.3,341.5 669.7,441.5 574.5,432.4" fill="#2f92a6" fill-opacity="0.88"/>
<polygon points="669.3,341.5 737.1,352.2 747.5,434.0" fill="#2a8ba0" fill-opacity="0.57"/>
<polygon points="669.3,341.5 747.5,434.0 669.7,441.5" fill="#3da5b4" fill-opacity="0.71"/>
<polygon points="737.1,352.2 815.3,340.0 747.5,434.0" fill="#41abb9" fill-opacity="0.91"/>
<polygon points="815.3,340.0 824.5,421.9 747.5,434.0" fill="#45b0bc" fill-opacity="0.99"/>
<polygon points="815.3,340.0 913.7,335.6 824.5,421.9" fill="#3ea7b5" fill-opacity="0.85"/>
<polygon points="913.7,335.6 887.1,430.2 824.5,421.9" fill="#3ba3b3" fill-opacity="0.79"/>
<polygon points="-5.5,444.5 74.3,419.9 72.4,527.1" fill="#014265" fill-opacity="0.91"/>
<polygon points="-5.5,444.5 72.4,527.1 -7.2,541.7" fill="#004669" fill-opacity="0.63"/>
<polygon points="74.3,419.9 149.3,445.8 176.4,526.3" fill="#00476a" fill-opacity="0.75"/>
<polygon points="74.3,419.9 176.4,526.3 72.4,527.1" fill="#00486c" fill-opacity="0.8"/>
<polygon points="149.3,445.8 246.2,432.5 176.4,526.3" fill="#004a6e" fill-opacity="0.61"/>
<polygon points="246.2,432.5 259.1,532.7 176.4,526.3" fill="#0d6383" fill-opacity="0.59"/>
<polygon points="246.2,432.5 339.0,442.9 335.9,511.9" fill="#004f73" fill-opacity="0.94"/>
<polygon points="246.2,432.5 335.9,511.9 259.1,532.7" fill="#0b5f80" fill-opacity="0.87"/>
<polygon points="339.0,442.9 398.7,426.7 402.4,538.6" fill="#1c7893" fill-opacity="0.9"/>
<polygon points="339.0,442.9 402.4,538.6 335.9,511.9" fill="#0d6383" fill-opacity="0.89"/>
<polygon points="398.7,426.7 504.4,434.1 402.4,538.6" fill="#24829a" fill-opacity="0.9"/>
<polygon points="504.4,434.1 486.9,534.6 402.4,538.6" fill="#23829a" fill-opacity="0.58"/>
<polygon points="504.4,434.1 574.5,432.4 577.4,542.8" fill="#1b7791" fill-opacity="0.88"/>
<polygon points="504.4,434.1 577.4,542.8 486.9,534.6" fill="#2f92a6" fill-opacity="1.0"/>
<polygon points="574.5,432.4 669.7,441.5 577.4,542.8" fill="#2b8ca1" fill-opacity="0.74"/>
<polygon points="669.7,441.5 656.1,541.9 577.4,542.8" fill="#3499ab" fill-opacity="0.84"/>
<polygon points="669.7,441.5 747.5,434.0 747.6,532.5" fill="#3da5b4" fill-opacity="0.82"/>
<polygon points="669.7,441.5 747.6,532.5 656.1,541.9" fill="#3da6b5" fill-opacity="0.97"/>
<polygon points="747.5,434.0 824.5,421.9 833.9,531.5" fill="#55c7cd" fill-opacity="0.93"/>
<polygon points="747.5,434.0 833.9,531.5 747.6,532.5" fill="#52c2ca" fill-opacity="0.82"/>
<polygon points="824.5,421.9 887.1,430.2 833.9,531.5" fill="#4bb9c3" fill-opacity="0.94"/>
<polygon points="887.1,430.2 898.3,536.7 833.9,531.5" fill="#51c1c9" fill-opacity="0.87"/>
<polygon points="-7.2,541.7 72.4,527.1 90.2,613.9" fill="#004c71" fill-opacity="0.88"/>
<polygon points="-7.2,541.7 90.2,613.9 7.2,614.8" fill="#004a6e" fill-opacity="0.91"/>
<polygon points="72.4,527.1 176.4,526.3 90.2,613.9" fill="#00496d" fill-opacity="0.71"/>
<polygon points="176.4,526.3 177.2,613.6 90.2,613.9" fill="#0b5f80" fill-opacity="0.98"/>
<polygon points="176.4,526.3 259.1,532.7 259.1,610.6" fill="#0f6685" fill-opacity="0.68"/>
<polygon points="176.4,526.3 259.1,610.6 177.2,613.6" fill="#126987" fill-opacity="0.75"/>
<polygon points="259.1,532.7 335.9,511.9 259.1,610.6" fill="#1a7590" fill-opacity="0.76"/>
<polygon points="335.9,511.9 337.9,595.4 259.1,610.6" fill="#136b89" fill-opacity="0.83"/>
<polygon points="335.9,511.9 402.4,538.6 424.5,599.1" fill="#1c7792" fill-opacity="0.79"/>
<polygon points="335.9,511.9 424.5,599.1 337.9,595.4" fill="#1b7691" fill-opacity="0.59"/>
<polygon points="402.4,538.6 486.9,534.6 487.5,604.1" fill="#24839b" fill-opacity="0.94"/>
<polygon points="402.4,538.6 487.5,604.1 424.5,599.1" fill="#26869d" fill-opacity="0.61"/>
<polygon points="486.9,534.6 577.4,542.8 583.5,619.0" fill="#359bac" fill-opacity="0.8"/>
<polygon points="486.9,534.6 583.5,619.0 487.5,604.1" fill="#3296a9" fill-opacity="0.7"/>
<polygon points="577.4,542.8 656.1,541.9 583.5,619.0" fill="#379eaf" fill-opacity="0.59"/>
<polygon points="656.1,541.9 652.1,597.1 583.5,619.0" fill="#47b4bf" fill-opacity="0.77"/>
<polygon points="656.1,541.9 747.6,532.5 652.1,597.1" fill="#56c9cf" fill-opacity="0.71"/>
<polygon points="747.6,532.5 735.6,626.1 652.1,597.1" fill="#57cacf" fill-opacity="0.92"/>
<polygon points="747.6,532.5 833.9,531.5 735.6,626.1" fill="#4cbbc4" fill-opacity="0.84"/>
<polygon points="833.9,531.5 830.7,605.9 735.6,626.1" fill="#5cd1d5" fill-opacity="0.58"/>
<polygon points="833.9,531.5 898.3,536.7 830.7,605.9" fill="#56c8ce" fill-opacity="0.85"/>
<polygon points="898.3,536.7 916.6,604.8 830.7,605.9" fill="#66dfdf" fill-opacity="0.92"/>
<polygon points="7.2,614.8 90.2,613.9 15.3,685.6" fill="#0e6383" fill-opacity="0.8"/>
<polygon points="90.2,613.9 66.0,704.2 15.3,685.6" fill="#126a88" fill-opacity="0.6"/>
<polygon points="90.2,613.9 177.2,613.6 66.0,704.2" fill="#106685" fill-opacity="0.77"/>
<polygon points="177.2,613.6 157.2,704.2 66.0,704.2" fill="#0b5f80" fill-opacity="0.96"/>
<polygon points="177.2,613.6 259.1,610.6 157.2,704.2" fill="#17708d" fill-opacity="0.77"/>
<polygon points="259.1,610.6 245.3,689.0 157.2,704.2" fill="#116886" fill-opacity="0.86"/>
<polygon points="259.1,610.6 337.9,595.4 245.3,689.0" fill="#29899f" fill-opacity="0.62"/>
<polygon points="337.9,595.4 341.2,682.4 245.3,689.0" fill="#3194a8" fill-opacity="0.86"/>
<polygon points="337.9,595.4 424.5,599.1 341.2,682.4" fill="#2e91a5" fill-opacity="0.73"/>
<polygon points="424.5,599.1 402.2,702.6 341.2,682.4" fill="#379dae" fill-opacity="0.76"/>
<polygon points="424.5,599.1 487.5,604.1 402.2,702.6" fill="#2c8ea3" fill-opacity="0.93"/>
<polygon points="487.5,604.1 495.0,693.6 402.2,702.6" fill="#48b5c0" fill-opacity="0.59"/>
<polygon points="487.5,604.1 583.5,619.0 565.1,688.3" fill="#3ca4b4" fill-opacity="0.95"/>
<polygon points="487.5,604.1 565.1,688.3 495.0,693.6" fill="#3ca4b3" fill-opacity="0.91"/>
<polygon points="583.5,619.0 652.1,597.1 565.1,688.3" fill="#46b2bd" fill-opacity="0.6"/>
<polygon points="652.1,597.1 665.7,696.0 565.1,688.3" fill="#54c5cc" fill-opacity="0.65"/>
<polygon points="652.1,597.1 735.6,626.1 726.3,714.0" fill="#51c2c9" fill-opacity="0.56"/>
<polygon points="652.1,597.1 726.3,714.0 665.7,696.0" fill="#5bd0d4" fill-opacity="0.96"/>
<polygon points="735.6,626.1 830.7,605.9 827.9,713.9" fill="#6ae5e3" fill-opacity="0.74"/>
<polygon points="735.6,626.1 827.9,713.9 726.3,714.0" fill="#72efeb" fill-opacity="0.81"/>
<polygon points="830.7,605.9 916.6,604.8 902.0,717.9" fill="#7dfff7" fill-opacity="0.71"/>
<polygon points="830.7,605.9 902.0,717.9 827.9,713.9" fill="#76f5ef" fill-opacity="0.78"/>
  </g>
</svg>